<svg width="25" height="25" viewBox="0 0 25 25" fill="none" xmlns="http://www.w3.org/2000/svg">
<g clip-path="url(#clip0_107_18)">
<path d="M0 12.5C0 10.2333 0.55835 8.14168 1.675 6.225C2.79168 4.30833 4.30835 2.79168 6.225 1.675C8.14168 0.558325 10.2334 0 12.5 0C14.7667 0 16.8584 0.558325 18.775 1.675C20.6917 2.79168 22.2084 4.30833 23.325 6.225C24.4417 8.14168 25 10.2333 25 12.5C25 14.7667 24.4417 16.8583 23.325 18.775C22.2084 20.6917 20.6917 22.2083 18.775 23.325C16.8584 24.4417 14.7667 25 12.5 25C10.2334 25 8.14168 24.4417 6.225 23.325C4.30835 22.2083 2.79168 20.6917 1.675 18.775C0.55835 16.8583 0 14.7667 0 12.5ZM2.075 12.5C2.075 15.1 2.95 17.3917 4.7 19.375C5.5 17.8083 6.76668 16.3167 8.5 14.9C10.2334 13.4833 11.925 12.5917 13.575 12.225C13.325 11.6417 13.0834 11.1167 12.85 10.65C9.98335 11.5667 6.88335 12.025 3.55 12.025C2.9 12.025 2.41668 12.0167 2.1 12C2.1 12.0667 2.09585 12.15 2.0875 12.25C2.07918 12.35 2.075 12.4333 2.075 12.5ZM2.4 9.925C2.76668 9.95833 3.30835 9.975 4.025 9.975C6.80835 9.975 9.45 9.6 11.95 8.85C10.6834 6.6 9.29168 4.725 7.775 3.225C6.45835 3.89168 5.32918 4.81668 4.3875 6C3.44585 7.18333 2.78335 8.49168 2.4 9.925ZM6.125 20.725C8.00835 22.1917 10.1334 22.925 12.5 22.925C13.7334 22.925 14.9584 22.6917 16.175 22.225C15.8417 19.375 15.1917 16.6167 14.225 13.95C12.6917 14.2833 11.1459 15.125 9.5875 16.475C8.02918 17.825 6.875 19.2417 6.125 20.725ZM9.95 2.425C11.4167 3.94168 12.775 5.83333 14.025 8.1C16.2917 7.15 18 5.94168 19.15 4.475C17.2167 2.875 15 2.075 12.5 2.075C11.65 2.075 10.8 2.19168 9.95 2.425ZM14.925 9.875C15.175 10.4083 15.4584 11.0833 15.775 11.9C17.0084 11.7833 18.35 11.725 19.8 11.725C20.8334 11.725 21.8584 11.75 22.875 11.8C22.7417 9.53333 21.925 7.51668 20.425 5.75C19.3417 7.36668 17.5084 8.74168 14.925 9.875ZM16.4 13.65C17.25 16.1167 17.825 18.65 18.125 21.25C19.4417 20.4 20.5167 19.3083 21.35 17.975C22.1834 16.6417 22.6834 15.2 22.85 13.65C21.6334 13.5667 20.525 13.525 19.525 13.525C18.6084 13.525 17.5667 13.5667 16.4 13.65Z" fill="white"/>
</g>
<defs>
<clipPath id="clip0_107_18">
<rect width="25" height="25" fill="white"/>
</clipPath>
</defs>
</svg>
