<svg width="45" height="45" viewBox="0 0 45 45" fill="none" xmlns="http://www.w3.org/2000/svg">
<g clip-path="url(#clip0_3_428)">
<path d="M45 22.5C45 10.0736 34.9264 0 22.5 0C10.0736 0 0 10.0736 0 22.5C0 33.7302 8.22788 43.0387 18.9844 44.7267V29.0039H13.2715V22.5H18.9844V17.543C18.9844 11.9039 22.3436 8.78906 27.483 8.78906C29.9439 8.78906 32.5195 9.22852 32.5195 9.22852V14.7656H29.6824C26.8875 14.7656 26.0156 16.5001 26.0156 18.2812V22.5H32.2559L31.2583 29.0039H26.0156V44.7267C36.7721 43.0387 45 33.7302 45 22.5Z" fill="white"/>
</g>
<defs>
<clipPath id="clip0_3_428">
<rect width="45" height="45" fill="white"/>
</clipPath>
</defs>
</svg>
