<svg width="45" height="45" viewBox="0 0 45 45" fill="none" xmlns="http://www.w3.org/2000/svg">
<g clip-path="url(#clip0_3_424)">
<path fill-rule="evenodd" clip-rule="evenodd" d="M22.5005 0.9375C17.1591 0.940271 11.9928 2.83211 7.92539 6.27473C3.85803 9.71735 1.15483 14.4863 0.299161 19.7287C-0.556511 24.9712 0.491128 30.3454 3.25477 34.8903C6.01842 39.4353 10.3178 42.8546 15.3843 44.5368C16.502 44.7443 16.923 44.0515 16.923 43.4625C16.923 42.8735 16.9006 41.1656 16.8932 39.2985C10.6339 40.6507 9.31124 36.6572 9.31124 36.6572C8.29037 34.0639 6.81496 33.3823 6.81496 33.3823C4.77323 31.9968 6.96773 32.0227 6.96773 32.0227C9.22928 32.182 10.4178 34.3307 10.4178 34.3307C12.4223 37.75 15.6823 36.7609 16.964 36.183C17.1652 34.7345 17.7501 33.7491 18.3947 33.1897C13.3947 32.6266 8.14134 30.7076 8.14134 22.1352C8.11035 19.912 8.94006 17.762 10.4588 16.13C10.2278 15.5669 9.45654 13.2923 10.6786 10.2027C10.6786 10.2027 12.5676 9.60254 16.8671 12.4958C20.555 11.493 24.446 11.493 28.1339 12.4958C32.4297 9.60254 34.315 10.2027 34.315 10.2027C35.5407 13.2849 34.7695 15.5595 34.5385 16.13C36.062 17.7622 36.8935 19.916 36.8597 22.1426C36.8597 30.7335 31.5951 32.6266 26.5877 33.1786C27.3925 33.875 28.1115 35.2346 28.1115 37.324C28.1115 40.3173 28.0855 42.7253 28.0855 43.4625C28.0855 44.0589 28.4916 44.7554 29.6316 44.5368C34.6987 42.8544 38.9985 39.4344 41.7621 34.8887C44.5257 30.3431 45.5728 24.9681 44.7161 19.7251C43.8595 14.4821 41.155 9.71317 37.0863 6.27114C33.0175 2.82911 27.85 0.938515 22.508 0.9375H22.5005Z" fill="white"/>
<path d="M15.0522 37.4536C15.0522 37.6352 14.8436 37.7907 14.5753 37.7944C14.307 37.7982 14.0872 37.65 14.0872 37.4684C14.0872 37.2869 14.2959 37.1313 14.5641 37.1276C14.8324 37.1239 15.0522 37.2684 15.0522 37.4536Z" fill="white"/>
<path d="M16.7661 37.1684C16.7996 37.3499 16.6133 37.5388 16.345 37.5833C16.0768 37.6277 15.8421 37.5203 15.8085 37.3425C15.775 37.1647 15.9687 36.972 16.2295 36.9239C16.4903 36.8757 16.7325 36.9869 16.7661 37.1684Z" fill="white"/>
<path d="M13.2116 37.3277C13.1557 37.5018 12.9023 37.5796 12.649 37.5055C12.3956 37.4314 12.228 37.224 12.2764 37.0461C12.3248 36.8683 12.5819 36.7868 12.839 36.8683C13.0961 36.9498 13.26 37.1462 13.2116 37.3277Z" fill="white"/>
<path d="M11.5238 36.6016C11.4009 36.7386 11.1513 36.7016 10.9464 36.5164C10.7414 36.3311 10.693 36.0792 10.8159 35.9459C10.9389 35.8125 11.1885 35.8495 11.4009 36.0311C11.6133 36.2126 11.6542 36.4682 11.5238 36.6016Z" fill="white"/>
<path d="M10.3204 35.3568C10.1826 35.4532 9.94785 35.3568 9.81745 35.1642C9.78139 35.1297 9.75272 35.0882 9.73313 35.0424C9.71354 34.9966 9.70343 34.9473 9.70343 34.8975C9.70343 34.8477 9.71354 34.7984 9.73313 34.7526C9.75272 34.7067 9.78139 34.6653 9.81745 34.6308C9.9553 34.5381 10.19 34.6308 10.3204 34.8197C10.4508 35.0086 10.4546 35.2605 10.3204 35.3568Z" fill="white"/>
<path d="M9.43368 34.0713C9.35652 34.11 9.26824 34.1208 9.18396 34.1019C9.09969 34.083 9.02465 34.0355 8.97168 33.9676C8.82638 33.812 8.79655 33.5972 8.90833 33.5008C9.0201 33.4045 9.22131 33.449 9.36662 33.6046C9.51192 33.7602 9.54545 33.975 9.43368 34.0713Z" fill="white"/>
<path d="M8.5208 33.06C8.47237 33.1711 8.29353 33.2045 8.14822 33.1267C8.00292 33.0489 7.89488 32.9044 7.94704 32.7896C7.9992 32.6747 8.17431 32.6451 8.31962 32.7229C8.46492 32.8007 8.57669 32.9489 8.5208 33.06Z" fill="white"/>
</g>
<defs>
<clipPath id="clip0_3_424">
<rect width="45" height="45" fill="white"/>
</clipPath>
</defs>
</svg>
