<svg width="45" height="45" viewBox="0 0 45 45" fill="none" xmlns="http://www.w3.org/2000/svg">
<g clip-path="url(#clip0_3_425)">
<path d="M41.6689 0H3.32227C1.48535 0 0 1.4502 0 3.24316V41.748C0 43.541 1.48535 45 3.32227 45H41.6689C43.5059 45 45 43.541 45 41.7568V3.24316C45 1.4502 43.5059 0 41.6689 0ZM13.3506 38.3467H6.6709V16.8662H13.3506V38.3467ZM10.0107 13.9395C7.86621 13.9395 6.13477 12.208 6.13477 10.0723C6.13477 7.93652 7.86621 6.20508 10.0107 6.20508C12.1465 6.20508 13.8779 7.93652 13.8779 10.0723C13.8779 12.1992 12.1465 13.9395 10.0107 13.9395ZM38.3467 38.3467H31.6758V27.9053C31.6758 25.418 31.6318 22.21 28.2041 22.21C24.7324 22.21 24.2051 24.9258 24.2051 27.7295V38.3467H17.543V16.8662H23.9414V19.8018H24.0293C24.917 18.1143 27.0967 16.3301 30.3398 16.3301C37.0986 16.3301 38.3467 20.7773 38.3467 26.5605V38.3467Z" fill="white"/>
</g>
<defs>
<clipPath id="clip0_3_425">
<rect width="45" height="45" fill="white"/>
</clipPath>
</defs>
</svg>
