<svg width="45" height="45" viewBox="0 0 45 45" fill="none" xmlns="http://www.w3.org/2000/svg">
<g clip-path="url(#clip0_3_427)">
<path d="M14.1565 40.7813C31.1335 40.7813 40.4218 26.7126 40.4218 14.5161C40.4218 14.1206 40.413 13.7163 40.3954 13.3208C42.2023 12.0141 43.7616 10.3956 45 8.54126C43.3172 9.28995 41.5306 9.77892 39.7011 9.99146C41.6274 8.83678 43.0697 7.02284 43.7607 4.88589C41.9485 5.95987 39.9667 6.71747 37.9002 7.12622C36.5078 5.64675 34.6669 4.66717 32.6619 4.33892C30.657 4.01067 28.5997 4.35205 26.8083 5.31026C25.0168 6.26847 23.5909 7.79015 22.751 9.64004C21.9111 11.4899 21.7039 13.565 22.1616 15.5444C18.4922 15.3602 14.9024 14.407 11.625 12.7465C8.34755 11.086 5.45567 8.75527 3.13682 5.90542C1.95825 7.93741 1.59761 10.3419 2.12818 12.6302C2.65876 14.9186 4.04074 16.919 5.99326 18.225C4.52743 18.1785 3.0937 17.7839 1.81055 17.0737V17.1879C1.80923 19.3204 2.54643 21.3874 3.89683 23.0378C5.24723 24.6881 7.12748 25.8199 9.21797 26.2407C7.8601 26.6122 6.43497 26.6663 5.05283 26.3989C5.64273 28.2328 6.79045 29.8367 8.33582 30.9869C9.88119 32.1372 11.7471 32.7762 13.6731 32.8149C10.4033 35.3834 6.36408 36.7766 2.20605 36.77C1.46866 36.7688 0.731998 36.7236 0 36.6346C4.22411 39.3446 9.13787 40.7839 14.1565 40.7813Z" fill="white"/>
</g>
<defs>
<clipPath id="clip0_3_427">
<rect width="45" height="45" fill="white"/>
</clipPath>
</defs>
</svg>
