<svg width="139" height="105" viewBox="0 0 139 105" fill="none" xmlns="http://www.w3.org/2000/svg">
<g filter="url(#filter0_f_3_600)">
<path d="M42.1705 100.722C34.3523 100.692 27.625 98.7677 21.9886 94.9495C16.3826 91.1313 12.0644 85.601 9.03409 78.3586C6.03409 71.1162 4.54924 62.404 4.57955 52.2222C4.57955 42.0707 6.07955 33.4192 9.07955 26.2677C12.1098 19.1161 16.428 13.6768 22.0341 9.94949C27.6705 6.19191 34.3826 4.31312 42.1705 4.31312C49.9583 4.31312 56.6553 6.19191 62.2614 9.94949C67.8977 13.7071 72.2311 19.1616 75.2614 26.3131C78.2917 33.4343 79.7917 42.0707 79.7614 52.2222C79.7614 62.4343 78.2462 71.1616 75.2159 78.404C72.2159 85.6465 67.9129 91.1768 62.3068 94.9949C56.7008 98.8131 49.9886 100.722 42.1705 100.722ZM42.1705 84.404C47.5038 84.404 51.7614 81.7222 54.9432 76.3586C58.125 70.9949 59.7008 62.9495 59.6705 52.2222C59.6705 45.1616 58.9432 39.2828 57.4886 34.5858C56.0644 29.8889 54.0341 26.3586 51.3977 23.9949C48.7917 21.6313 45.7159 20.4495 42.1705 20.4495C36.8674 20.4495 32.625 23.101 29.4432 28.404C26.2614 33.7071 24.6553 41.6465 24.625 52.2222C24.625 59.3737 25.3371 65.3434 26.7614 70.1313C28.2159 74.8889 30.2614 78.4646 32.8977 80.8586C35.5341 83.2222 38.625 84.404 42.1705 84.404ZM134.295 5.58585V98.6768H114.614V24.2677H114.068L92.75 37.6313V20.1768L115.795 5.58585H134.295Z" fill="#191923"/>
<path d="M42.1705 100.722L42.1627 102.722H42.1705V100.722ZM21.9886 94.9495L20.8628 96.6025L20.8669 96.6053L21.9886 94.9495ZM9.03409 78.3586L7.18633 79.124L7.18908 79.1305L9.03409 78.3586ZM4.57955 52.2222L6.57955 52.2282V52.2222H4.57955ZM9.07955 26.2677L7.23803 25.4874L7.23525 25.494L9.07955 26.2677ZM22.0341 9.94949L23.1414 11.615L23.1435 11.6136L22.0341 9.94949ZM62.2614 9.94949L61.1478 11.6108L61.152 11.6136L62.2614 9.94949ZM75.2614 26.3131L73.4199 27.0934L73.4211 27.0962L75.2614 26.3131ZM79.7614 52.2222L77.7614 52.2162V52.2222H79.7614ZM75.2159 78.404L73.3709 77.6321L73.3682 77.6386L75.2159 78.404ZM62.3068 94.9949L63.4327 96.648L62.3068 94.9949ZM54.9432 76.3586L56.6633 77.379L54.9432 76.3586ZM59.6705 52.2222H57.6704L57.6705 52.2279L59.6705 52.2222ZM57.4886 34.5858L55.5747 35.1662L55.5782 35.1775L57.4886 34.5858ZM51.3977 23.9949L50.0541 25.4764L50.0626 25.4841L51.3977 23.9949ZM29.4432 28.404L27.7282 27.375H27.7282L29.4432 28.404ZM24.625 52.2222L22.625 52.2165V52.2222H24.625ZM26.7614 70.1313L24.8444 70.7015L24.8465 70.7088L24.8488 70.716L26.7614 70.1313ZM32.8977 80.8586L31.5532 82.3393L31.5626 82.3477L32.8977 80.8586ZM42.1782 98.7222C34.6966 98.6932 28.3709 96.8573 23.1103 93.2936L20.8669 96.6053C26.8791 100.678 34.008 102.691 42.1627 102.722L42.1782 98.7222ZM23.1145 93.2965C17.8763 89.7288 13.7841 84.5295 10.8791 77.5866L7.18908 79.1305C10.3447 86.6725 14.8889 92.5338 20.8628 96.6025L23.1145 93.2965ZM10.8818 77.5932C8.00848 70.6565 6.5498 62.2208 6.57954 52.2282L2.57955 52.2163C2.54869 62.5873 4.05971 71.5758 7.18634 79.124L10.8818 77.5932ZM6.57955 52.2222C6.57955 42.2582 8.05305 33.8848 10.9238 27.0413L7.23525 25.494C4.10604 32.9535 2.57955 41.8832 2.57955 52.2222H6.57955ZM10.921 27.048C13.8227 20.2001 17.9094 15.0936 23.1414 11.615L20.9268 8.284C14.9467 12.2599 10.397 18.0322 7.23804 25.4874L10.921 27.048ZM23.1435 11.6136C28.4042 8.10647 34.7167 6.31312 42.1705 6.31312V2.31312C34.0485 2.31312 26.9367 4.27735 20.9247 8.28539L23.1435 11.6136ZM42.1705 6.31312C49.6245 6.31312 55.9197 8.10655 61.1478 11.6108L63.3749 8.28815C57.3909 4.27727 50.2921 2.31312 42.1705 2.31312V6.31312ZM61.152 11.6136C66.4174 15.1239 70.5191 20.2475 73.4199 27.0934L77.1029 25.5328C73.9431 18.0757 69.378 12.2902 63.3708 8.28539L61.152 11.6136ZM73.4211 27.0962C76.3177 33.9033 77.7911 42.2554 77.7614 52.2162L81.7614 52.2282C81.7922 41.886 80.2657 32.9654 77.1017 25.53L73.4211 27.0962ZM77.7614 52.2222C77.7614 62.2453 76.2732 70.6957 73.3709 77.6321L77.0609 79.176C80.2193 71.6275 81.7614 62.6234 81.7614 52.2222H77.7614ZM73.3682 77.6386C70.4934 84.5786 66.4173 89.7756 61.181 93.3419L63.4327 96.648C69.4085 92.578 73.9384 86.7143 77.0637 79.1694L73.3682 77.6386ZM61.181 93.3419C55.9555 96.9009 49.6502 98.7222 42.1705 98.7222V102.722C50.3271 102.722 57.4461 100.725 63.4327 96.648L61.181 93.3419ZM42.1705 86.404C48.3408 86.404 53.1935 83.2281 56.6633 77.379L53.2231 75.3382C50.3293 80.2163 46.6667 82.404 42.1705 82.404V86.404ZM56.6633 77.379C60.1185 71.5545 61.7011 63.0768 61.6704 52.2166L57.6705 52.2279C57.7004 62.8222 56.1315 70.4354 53.2231 75.3382L56.6633 77.379ZM61.6705 52.2222C61.6705 45.0406 60.9327 38.9463 59.3991 33.9942L55.5782 35.1775C56.9537 39.6194 57.6705 45.2827 57.6705 52.2222H61.6705ZM59.4026 34.0055C57.9114 29.0879 55.7273 25.1905 52.7328 22.5058L50.0626 25.4841C52.3409 27.5266 54.2174 30.6899 55.5747 35.1662L59.4026 34.0055ZM52.7414 22.5135C49.7642 19.8133 46.2084 18.4495 42.1705 18.4495V22.4495C45.2234 22.4495 47.8191 23.4493 50.0541 25.4764L52.7414 22.5135ZM42.1705 18.4495C36.037 18.4495 31.2004 21.588 27.7282 27.375L31.1582 29.433C34.0496 24.614 37.6978 22.4495 42.1705 22.4495V18.4495ZM27.7282 27.375C24.2718 33.1356 22.6557 41.5053 22.625 52.2165L26.625 52.2279C26.6549 41.7876 28.2509 34.2785 31.1582 29.433L27.7282 27.375ZM22.625 52.2222C22.625 59.491 23.347 65.6678 24.8444 70.7015L28.6783 69.5611C27.3272 65.0191 26.625 59.2564 26.625 52.2222H22.625ZM24.8488 70.716C26.3687 75.6876 28.5648 79.6256 31.5532 82.3392L34.2422 79.3779C31.9579 77.3036 30.0631 74.0901 28.674 69.5466L24.8488 70.716ZM31.5626 82.3477C34.5664 85.0408 38.133 86.404 42.1705 86.404V82.404C39.117 82.404 36.5017 81.4036 34.2328 79.3694L31.5626 82.3477ZM134.295 5.58585H136.295V3.58585H134.295V5.58585ZM134.295 98.6768V100.677H136.295V98.6768H134.295ZM114.614 98.6768H112.614V100.677H114.614V98.6768ZM114.614 24.2677H116.614V22.2677H114.614V24.2677ZM114.068 24.2677V22.2677H113.493L113.006 22.5731L114.068 24.2677ZM92.75 37.6313H90.75V41.2455L93.8123 39.3259L92.75 37.6313ZM92.75 20.1768L91.6801 18.487L90.75 19.0759V20.1768H92.75ZM115.795 5.58585V3.58585H115.216L114.726 3.89606L115.795 5.58585ZM132.295 5.58585V98.6768H136.295V5.58585H132.295ZM134.295 96.6768H114.614V100.677H134.295V96.6768ZM116.614 98.6768V24.2677H112.614V98.6768H116.614ZM114.614 22.2677H114.068V26.2677H114.614V22.2677ZM113.006 22.5731L91.6877 35.9367L93.8123 39.3259L115.13 25.9622L113.006 22.5731ZM94.75 37.6313V20.1768H90.75V37.6313H94.75ZM93.8199 21.8665L116.865 7.27563L114.726 3.89606L91.6801 18.487L93.8199 21.8665ZM115.795 7.58585H134.295V3.58585H115.795V7.58585Z" fill="white"/>
</g>
<defs>
<filter id="filter0_f_3_600" x="0.534119" y="0.31311" width="137.761" height="104.409" filterUnits="userSpaceOnUse" color-interpolation-filters="sRGB">
<feFlood flood-opacity="0" result="BackgroundImageFix"/>
<feBlend mode="normal" in="SourceGraphic" in2="BackgroundImageFix" result="shape"/>
<feGaussianBlur stdDeviation="2" result="effect1_foregroundBlur_3_600"/>
</filter>
</defs>
</svg>
