<svg width="179" height="115" viewBox="0 0 179 115" fill="none" xmlns="http://www.w3.org/2000/svg">
<g opacity="0.8" filter="url(#filter0_f_5_965)">
<path d="M45.3896 110.237C36.8384 110.204 29.4805 108.099 23.3157 103.923C17.1841 99.7472 12.4611 93.6984 9.14666 85.777C5.86541 77.8556 4.24136 68.3267 4.2745 57.1903C4.2745 46.0871 5.91513 36.6245 9.19638 28.8026C12.5108 20.9806 17.2338 15.0312 23.3654 10.9545C29.5302 6.84469 36.8716 4.78977 45.3896 4.78977C53.9076 4.78977 61.2324 6.84469 67.364 10.9545C73.5288 15.0644 78.2684 21.0303 81.5827 28.8523C84.8971 36.6411 86.5378 46.0871 86.5046 57.1903C86.5046 68.3598 84.8474 77.9053 81.533 85.8267C78.2518 93.7481 73.5453 99.7969 67.4137 103.973C61.2821 108.149 53.9407 110.237 45.3896 110.237ZM45.3896 92.3892C51.2229 92.3892 55.8796 89.456 59.3597 83.5895C62.8398 77.723 64.5633 68.9233 64.5302 57.1903C64.5302 49.4678 63.7347 43.0379 62.1438 37.9006C60.5861 32.7633 58.3654 28.902 55.4819 26.3168C52.6315 23.7315 49.2674 22.4389 45.3896 22.4389C39.5894 22.4389 34.9492 25.339 31.4691 31.1392C27.989 36.9394 26.2324 45.6231 26.1992 57.1903C26.1992 65.0123 26.9781 71.5417 28.5359 76.7784C30.1268 81.982 32.364 85.893 35.2475 88.5114C38.131 91.0966 41.5117 92.3892 45.3896 92.3892ZM101.854 108V92.4886L138.097 58.9304C141.18 55.9474 143.765 53.2628 145.853 50.8764C147.974 48.4901 149.582 46.1534 150.675 43.8665C151.769 41.5464 152.316 39.044 152.316 36.3594C152.316 33.3764 151.637 30.8078 150.278 28.6534C148.919 26.4659 147.063 24.7921 144.71 23.6321C142.356 22.4389 139.688 21.8423 136.705 21.8423C133.59 21.8423 130.872 22.4721 128.552 23.7315C126.232 24.991 124.442 26.7973 123.183 29.1506C121.923 31.5038 121.293 34.3044 121.293 37.5526H100.86C100.86 30.8906 102.368 25.107 105.384 20.2017C108.4 15.2964 112.626 11.5014 118.062 8.81676C123.497 6.1321 129.762 4.78977 136.854 4.78977C144.146 4.78977 150.493 6.08238 155.896 8.66761C161.331 11.2197 165.557 14.7661 168.573 19.3068C171.589 23.8475 173.097 29.0511 173.097 34.9176C173.097 38.7623 172.335 42.5573 170.81 46.3026C169.319 50.0478 166.651 54.2074 162.806 58.7812C158.961 63.322 153.542 68.7741 146.549 75.1378L131.684 89.7045V90.4006H174.44V108H101.854Z" fill="#191923"/>
<path d="M45.3896 110.237L45.3818 112.237H45.3896V110.237ZM23.3157 103.923L22.1899 105.576L22.194 105.579L23.3157 103.923ZM9.14666 85.777L7.2989 86.5424L7.30165 86.549L9.14666 85.777ZM4.2745 57.1903L6.2745 57.1963V57.1903H4.2745ZM9.19638 28.8026L7.35486 28.0222L7.35208 28.0289L9.19638 28.8026ZM23.3654 10.9545L24.4727 12.62L24.4748 12.6186L23.3654 10.9545ZM67.364 10.9545L66.2505 12.6159L66.2546 12.6186L67.364 10.9545ZM81.5827 28.8523L79.7412 29.6326L79.7424 29.6354L81.5827 28.8523ZM86.5046 57.1903L84.5046 57.1844V57.1903H86.5046ZM81.533 85.8267L79.688 85.0547L79.6853 85.0613L81.533 85.8267ZM67.4137 103.973L68.5396 105.626L67.4137 103.973ZM59.3597 83.5895L61.0798 84.6099L59.3597 83.5895ZM64.5302 57.1903H62.5302L62.5302 57.196L64.5302 57.1903ZM62.1438 37.9006L60.2298 38.4809L60.2333 38.4922L62.1438 37.9006ZM55.4819 26.3168L54.1382 27.7982L54.1468 27.8059L55.4819 26.3168ZM31.4691 31.1392L29.7541 30.1102V30.1102L31.4691 31.1392ZM26.1992 57.1903L24.1992 57.1846V57.1903H26.1992ZM28.5359 76.7784L26.6189 77.3486L26.621 77.3559L26.6233 77.3632L28.5359 76.7784ZM35.2475 88.5114L33.903 89.992L33.9124 90.0005L35.2475 88.5114ZM45.3973 108.237C37.1827 108.205 30.2264 106.189 24.4374 102.267L22.194 105.579C28.7346 110.01 36.4941 112.203 45.3818 112.237L45.3973 108.237ZM24.4415 102.27C18.6778 98.3447 14.1807 92.6269 10.9917 85.005L7.30165 86.549C10.7414 94.7699 15.6904 101.15 22.1899 105.576L24.4415 102.27ZM10.9944 85.0116C7.8398 77.3959 6.24191 68.1435 6.27449 57.1963L2.27451 57.1844C2.2408 68.5099 3.89103 78.3153 7.29891 86.5424L10.9944 85.0116ZM6.2745 57.1903C6.2745 46.2747 7.88863 37.0902 11.0407 29.5762L7.35208 28.0289C3.94163 36.1589 2.2745 45.8996 2.2745 57.1903H6.2745ZM11.0379 29.5829C14.2236 22.0646 18.7151 16.4481 24.4727 12.62L22.2581 9.28906C15.7525 13.6144 10.798 19.8966 7.35487 28.0223L11.0379 29.5829ZM24.4748 12.6186C30.2639 8.75925 37.2057 6.78977 45.3896 6.78977V2.78977C36.5375 2.78977 28.7965 4.93013 22.256 9.29045L24.4748 12.6186ZM45.3896 6.78977C53.5737 6.78977 60.4967 8.75933 66.2505 12.6159L68.4775 9.29321C61.968 4.93006 54.2414 2.78977 45.3896 2.78977V6.78977ZM66.2546 12.6186C72.0485 16.4812 76.5563 22.1162 79.7412 29.6326L83.4242 28.072C79.9804 19.9444 75.009 13.6475 68.4734 9.29045L66.2546 12.6186ZM79.7424 29.6354C82.9231 37.11 84.5372 46.2718 84.5046 57.1844L88.5046 57.1963C88.5383 45.9024 86.8711 36.1722 83.4231 28.0692L79.7424 29.6354ZM84.5046 57.1903C84.5046 68.1708 82.8744 77.4394 79.688 85.0547L83.378 86.5987C86.8205 78.3712 88.5046 68.5489 88.5046 57.1903H84.5046ZM79.6853 85.0613C76.5293 92.6803 72.0498 98.3957 66.2879 102.32L68.5396 105.626C75.0409 101.198 79.9743 94.8159 83.3808 86.5921L79.6853 85.0613ZM66.2879 102.32C60.5368 106.237 53.6022 108.237 45.3896 108.237V112.237C54.2792 112.237 62.0274 110.061 68.5396 105.626L66.2879 102.32ZM45.3896 94.3892C52.0599 94.3892 57.3117 90.9619 61.0798 84.6099L57.6396 82.5691C54.4475 87.9501 50.3858 90.3892 45.3896 90.3892V94.3892ZM61.0798 84.6099C64.8333 78.2826 66.5637 69.0506 66.5302 57.1847L62.5302 57.196C62.563 68.796 60.8464 77.1635 57.6396 82.5691L61.0798 84.6099ZM66.5302 57.1903C66.5302 49.3467 65.7242 42.7013 64.0543 37.3089L60.2333 38.4922C61.7452 43.3744 62.5302 49.5889 62.5302 57.1903H66.5302ZM64.0578 37.3202C62.4331 31.9622 60.0587 27.7339 56.817 24.8276L54.1468 27.8059C56.6722 30.07 58.739 33.5643 60.2299 38.4809L64.0578 37.3202ZM56.8255 24.8353C53.6041 21.9135 49.7599 20.4389 45.3896 20.4389V24.4389C48.7749 24.4389 51.659 25.5495 54.1383 27.7982L56.8255 24.8353ZM45.3896 20.4389C38.759 20.4389 33.5246 23.826 29.7541 30.1102L33.1841 32.1682C36.3738 26.852 40.4198 24.4389 45.3896 24.4389V20.4389ZM29.7541 30.1102C25.9995 36.368 24.2328 45.482 24.1992 57.1846L28.1992 57.1961C28.232 45.7642 29.9785 37.5108 33.1841 32.1682L29.7541 30.1102ZM24.1992 57.1903C24.1992 65.1296 24.988 71.866 26.6189 77.3486L30.4529 76.2082C28.9682 71.2173 28.1992 64.895 28.1992 57.1903H24.1992ZM26.6233 77.3632C28.2796 82.7807 30.6675 87.054 33.903 89.992L36.592 87.0307C34.0605 84.732 31.974 81.1833 30.4485 76.1937L26.6233 77.3632ZM33.9124 90.0005C37.1634 92.9152 41.0197 94.3892 45.3896 94.3892V90.3892C42.0038 90.3892 39.0987 89.278 36.5826 87.0222L33.9124 90.0005ZM101.854 108H99.8544V110H101.854V108ZM101.854 92.4886L100.496 91.0211L99.8544 91.6148V92.4886H101.854ZM138.097 58.9304L139.456 60.3979L139.472 60.3829L139.488 60.3676L138.097 58.9304ZM145.853 50.8764L144.358 49.5477L144.353 49.5535L144.348 49.5594L145.853 50.8764ZM150.675 43.8665L152.48 44.7294L152.484 44.7193L150.675 43.8665ZM150.278 28.6534L148.579 29.7088L148.586 29.7204L150.278 28.6534ZM144.71 23.6321L143.805 25.4159L143.815 25.421L143.825 25.426L144.71 23.6321ZM123.183 29.1506L124.946 30.0943L123.183 29.1506ZM121.293 37.5526V39.5526H123.293V37.5526H121.293ZM100.86 37.5526H98.8601V39.5526H100.86V37.5526ZM105.384 20.2017L107.088 21.2493L105.384 20.2017ZM118.062 8.81676L117.176 7.02355L118.062 8.81676ZM155.896 8.66761L155.032 10.4717L155.039 10.4749L155.046 10.478L155.896 8.66761ZM168.573 19.3068L166.907 20.4134V20.4134L168.573 19.3068ZM170.81 46.3026L168.958 45.5485L168.955 45.5555L168.952 45.5626L170.81 46.3026ZM162.806 58.7812L164.332 60.0736L164.337 60.0682L162.806 58.7812ZM146.549 75.1378L145.203 73.6585L145.176 73.6834L145.149 73.7093L146.549 75.1378ZM131.684 89.7045L130.284 88.2761L129.684 88.8642V89.7045H131.684ZM131.684 90.4006H129.684V92.4006H131.684V90.4006ZM174.44 90.4006H176.44V88.4006H174.44V90.4006ZM174.44 108V110H176.44V108H174.44ZM103.854 108V92.4886H99.8544V108H103.854ZM103.213 93.9562L139.456 60.3979L136.738 57.4629L100.496 91.0211L103.213 93.9562ZM139.488 60.3676C142.597 57.3586 145.224 54.633 147.358 52.1934L144.348 49.5594C142.306 51.8926 139.762 54.5363 136.706 57.4932L139.488 60.3676ZM147.348 52.2051C149.563 49.7133 151.287 47.2225 152.48 44.7294L148.871 43.0036C147.876 45.0844 146.386 47.2668 144.358 49.5477L147.348 52.2051ZM152.484 44.7193C153.71 42.12 154.316 39.3248 154.316 36.3594H150.316C150.316 38.7633 149.829 40.9728 148.866 43.0136L152.484 44.7193ZM154.316 36.3594C154.316 33.0645 153.562 30.1115 151.969 27.5864L148.586 29.7204C149.711 31.504 150.316 33.6884 150.316 36.3594H154.316ZM151.977 27.598C150.417 25.0869 148.276 23.1602 145.594 21.8382L143.825 25.426C145.85 26.4241 147.421 27.845 148.579 29.7088L151.977 27.598ZM145.614 21.8483C142.946 20.4954 139.961 19.8423 136.705 19.8423V23.8423C139.415 23.8423 141.767 24.3825 143.805 25.4159L145.614 21.8483ZM136.705 19.8423C133.317 19.8423 130.259 20.5289 127.598 21.9738L129.506 25.4892C131.485 24.4152 133.863 23.8423 136.705 23.8423V19.8423ZM127.598 21.9738C124.93 23.4219 122.861 25.5131 121.419 28.2068L124.946 30.0943C126.023 28.0816 127.533 26.5601 129.506 25.4892L127.598 21.9738ZM121.419 28.2068C119.974 30.9069 119.293 34.0459 119.293 37.5526H123.293C123.293 34.563 123.872 32.1007 124.946 30.0943L121.419 28.2068ZM121.293 35.5526H100.86V39.5526H121.293V35.5526ZM102.86 37.5526C102.86 31.2014 104.294 25.7927 107.088 21.2493L103.681 19.1542C100.442 24.4213 98.8601 30.5798 98.8601 37.5526H102.86ZM107.088 21.2493C109.896 16.6818 113.831 13.1372 118.947 10.61L117.176 7.02355C111.422 9.86563 106.904 13.911 103.681 19.1542L107.088 21.2493ZM118.947 10.61C124.065 8.08264 130.017 6.78977 136.854 6.78977V2.78977C129.506 2.78977 122.93 4.18155 117.176 7.02355L118.947 10.61ZM136.854 6.78977C143.911 6.78977 149.952 8.04041 155.032 10.4717L156.759 6.86353C151.035 4.12435 144.381 2.78977 136.854 2.78977V6.78977ZM155.046 10.478C160.185 12.8909 164.114 16.208 166.907 20.4134L170.239 18.2002C167 13.3242 162.478 9.54854 156.746 6.85722L155.046 10.478ZM166.907 20.4134C169.689 24.601 171.097 29.4134 171.097 34.9176H175.097C175.097 28.6889 173.49 23.0941 170.239 18.2002L166.907 20.4134ZM171.097 34.9176C171.097 38.4905 170.39 42.0301 168.958 45.5485L172.663 47.0566C174.28 43.0845 175.097 39.0341 175.097 34.9176H171.097ZM168.952 45.5626C167.568 49.0382 165.042 53.0131 161.275 57.4943L164.337 60.0682C168.26 55.4017 171.07 51.0574 172.668 47.0425L168.952 45.5626ZM161.28 57.4889C157.514 61.9367 152.165 67.3236 145.203 73.6585L147.895 76.617C154.92 70.2247 160.409 64.7072 164.332 60.0736L161.28 57.4889ZM145.149 73.7093L130.284 88.2761L133.084 91.133L147.949 76.5663L145.149 73.7093ZM129.684 89.7045V90.4006H133.684V89.7045H129.684ZM131.684 92.4006H174.44V88.4006H131.684V92.4006ZM172.44 90.4006V108H176.44V90.4006H172.44ZM174.44 106H101.854V110H174.44V106Z" fill="white"/>
</g>
<defs>
<filter id="filter0_f_5_965" x="0.224785" y="0.789795" width="178.215" height="113.448" filterUnits="userSpaceOnUse" color-interpolation-filters="sRGB">
<feFlood flood-opacity="0" result="BackgroundImageFix"/>
<feBlend mode="normal" in="SourceGraphic" in2="BackgroundImageFix" result="shape"/>
<feGaussianBlur stdDeviation="2" result="effect1_foregroundBlur_5_965"/>
</filter>
</defs>
</svg>
