<svg width="183" height="115" viewBox="0 0 183 115" fill="none" xmlns="http://www.w3.org/2000/svg">
<g opacity="0.8" filter="url(#filter0_f_7_76)">
<path d="M45.3388 110.237C36.7876 110.204 29.4297 108.099 23.2649 103.923C17.1333 99.7472 12.4103 93.6984 9.09588 85.777C5.81463 77.8556 4.19058 68.3267 4.22372 57.1903C4.22372 46.0871 5.86435 36.6245 9.1456 28.8026C12.46 20.9806 17.183 15.0312 23.3146 10.9545C29.4794 6.84469 36.8208 4.78977 45.3388 4.78977C53.8568 4.78977 61.1816 6.84469 67.3132 10.9545C73.478 15.0644 78.2176 21.0303 81.532 28.8523C84.8464 36.6411 86.487 46.0871 86.4538 57.1903C86.4538 68.3598 84.7966 77.9053 81.4822 85.8267C78.201 93.7481 73.4946 99.7969 67.3629 103.973C61.2313 108.149 53.8899 110.237 45.3388 110.237ZM45.3388 92.3892C51.1721 92.3892 55.8288 89.456 59.309 83.5895C62.7891 77.723 64.5125 68.9233 64.4794 57.1903C64.4794 49.4678 63.684 43.0379 62.093 37.9006C60.5353 32.7633 58.3146 28.902 55.4311 26.3168C52.5807 23.7315 49.2166 22.4389 45.3388 22.4389C39.5386 22.4389 34.8984 25.339 31.4183 31.1392C27.9382 36.9394 26.1816 45.6231 26.1484 57.1903C26.1484 65.0123 26.9273 71.5417 28.4851 76.7784C30.076 81.982 32.3132 85.893 35.1967 88.5114C38.0803 91.0966 41.4609 92.3892 45.3388 92.3892ZM139.439 109.392C132.014 109.392 125.402 108.116 119.602 105.564C113.835 102.979 109.278 99.4323 105.93 94.9247C102.616 90.384 100.909 85.1473 100.809 79.2145H122.485C122.618 81.7003 123.43 83.8878 124.922 85.777C126.446 87.633 128.468 89.0748 130.987 90.1023C133.506 91.1297 136.34 91.6435 139.488 91.6435C142.77 91.6435 145.67 91.0634 148.189 89.9034C150.708 88.7434 152.68 87.1359 154.105 85.081C155.53 83.026 156.243 80.6562 156.243 77.9716C156.243 75.2538 155.48 72.8509 153.956 70.7628C152.464 68.6416 150.31 66.9844 147.493 65.7912C144.708 64.598 141.394 64.0014 137.549 64.0014H128.054V48.1918H137.549C140.797 48.1918 143.664 47.6283 146.15 46.5014C148.669 45.3745 150.625 43.8168 152.017 41.8281C153.409 39.8063 154.105 37.4531 154.105 34.7685C154.105 32.2164 153.492 29.9792 152.265 28.0568C151.072 26.1013 149.382 24.5767 147.194 23.483C145.04 22.3892 142.521 21.8423 139.637 21.8423C136.721 21.8423 134.053 22.3726 131.633 23.4332C129.214 24.4607 127.275 25.9356 125.816 27.858C124.358 29.7803 123.579 32.0341 123.48 34.6193H102.848C102.947 28.7528 104.621 23.5824 107.869 19.108C111.117 14.6335 115.492 11.1368 120.994 8.61789C126.529 6.06581 132.777 4.78977 139.737 4.78977C146.763 4.78977 152.912 6.06581 158.181 8.61789C163.451 11.17 167.545 14.6169 170.461 18.9588C173.411 23.2675 174.869 28.1065 174.836 33.4758C174.869 39.1766 173.096 43.9328 169.517 47.7443C165.97 51.5559 161.347 53.9754 155.646 55.0028V55.7983C163.136 56.7595 168.837 59.3613 172.748 63.6037C176.692 67.813 178.648 73.0829 178.615 79.4134C178.648 85.2135 176.974 90.3674 173.593 94.875C170.246 99.3826 165.622 102.929 159.723 105.514C153.823 108.099 147.062 109.392 139.439 109.392Z" fill="#191923"/>
<path d="M45.3388 110.237L45.3272 113.237H45.3388V110.237ZM23.2649 103.923L21.5761 106.403L21.5824 106.407L23.2649 103.923ZM9.09588 85.777L6.32424 86.9251L6.32837 86.9349L9.09588 85.777ZM4.22372 57.1903L7.22372 57.1993V57.1903H4.22372ZM9.1456 28.8026L6.38332 27.6321L6.37915 27.6421L9.1456 28.8026ZM23.3146 10.9545L24.9756 13.4528L24.9787 13.4507L23.3146 10.9545ZM67.3132 10.9545L65.6429 13.4466L65.6491 13.4507L67.3132 10.9545ZM81.532 28.8523L78.7697 30.0227L78.7715 30.0269L81.532 28.8523ZM86.4538 57.1903L83.4538 57.1814V57.1903H86.4538ZM81.4822 85.8267L78.7147 84.6687L78.7106 84.6786L81.4822 85.8267ZM67.3629 103.973L69.0517 106.453L67.3629 103.973ZM59.309 83.5895L61.8891 85.1201L59.309 83.5895ZM64.4794 57.1903H61.4794L61.4794 57.1988L64.4794 57.1903ZM62.093 37.9006L59.2221 38.7711L59.2247 38.7796L59.2273 38.788L62.093 37.9006ZM55.4311 26.3168L53.4157 28.5389L53.4221 28.5447L53.4285 28.5505L55.4311 26.3168ZM31.4183 31.1392L28.8458 29.5957L28.8458 29.5957L31.4183 31.1392ZM26.1484 57.1903L23.1484 57.1817V57.1903H26.1484ZM28.4851 76.7784L25.6096 77.6338L25.6129 77.6447L25.6162 77.6555L28.4851 76.7784ZM35.1967 88.5114L33.18 90.7323L33.187 90.7387L33.1941 90.7451L35.1967 88.5114ZM45.3504 107.237C37.3041 107.206 30.5485 105.234 24.9475 101.44L21.5824 106.407C28.3108 110.965 36.2712 113.202 45.3272 113.237L45.3504 107.237ZM24.9537 101.444C19.3738 97.6434 14.9898 92.0911 11.8634 84.619L6.32837 86.9349C9.83076 95.3057 14.8927 101.851 21.5762 106.403L24.9537 101.444ZM11.8675 84.6289C8.77621 77.1661 7.19141 68.0518 7.22371 57.1993L1.22373 57.1814C1.18975 68.6016 2.85305 78.5451 6.32425 86.9251L11.8675 84.6289ZM7.22372 57.1903C7.22372 46.3684 8.8246 37.323 11.912 29.9631L6.37915 27.6421C2.90409 35.926 1.22372 45.8058 1.22372 57.1903H7.22372ZM11.9079 29.973C15.0292 22.6066 19.405 17.1565 24.9756 13.4528L21.6537 8.45632C14.961 12.906 9.89076 19.3546 6.38334 27.6321L11.9079 29.973ZM24.9787 13.4507C30.58 9.71654 37.3219 7.78977 45.3388 7.78977V1.78977C36.3197 1.78977 28.3788 3.97285 21.6505 8.4584L24.9787 13.4507ZM45.3388 7.78977C53.3561 7.78977 60.0781 9.71665 65.6429 13.4465L68.9835 8.46255C62.285 3.97274 54.3575 1.78977 45.3388 1.78977V7.78977ZM65.6491 13.4507C71.2576 17.1897 75.6496 22.6591 78.7697 30.0227L84.2942 27.6818C80.7856 19.4015 75.6984 12.9391 68.9773 8.45839L65.6491 13.4507ZM78.7715 30.0269C81.8854 37.3445 83.4861 46.3641 83.4538 57.1814L89.4538 57.1993C89.4878 45.8101 87.8074 35.9377 84.2924 27.6776L78.7715 30.0269ZM83.4538 57.1903C83.4538 68.0763 81.8371 77.2064 78.7147 84.6687L84.2498 86.9847C87.7562 78.6042 89.4538 68.6434 89.4538 57.1903H83.4538ZM78.7106 84.6786C75.6173 92.1464 71.2512 97.6951 65.6742 101.493L69.0517 106.453C75.7379 101.899 80.7847 95.3498 84.2539 86.9748L78.7106 84.6786ZM65.6742 101.493C60.1133 105.281 53.3822 107.237 45.3388 107.237V113.237C54.3976 113.237 62.3493 111.017 69.0517 106.453L65.6742 101.493ZM45.3388 95.3892C52.4277 95.3892 57.977 91.7148 61.8891 85.1201L56.7288 82.0589C53.6807 87.1971 49.9165 89.3892 45.3388 89.3892V95.3892ZM61.8891 85.1201C65.7793 78.5623 67.5131 69.1142 67.4794 57.1819L61.4794 57.1988C61.512 68.7324 59.7988 76.8837 56.7288 82.0589L61.8891 85.1201ZM67.4794 57.1903C67.4794 49.2862 66.6682 42.5331 64.9588 37.0131L59.2273 38.788C60.6997 43.5427 61.4794 49.6494 61.4794 57.1903H67.4794ZM64.964 37.03C63.3058 31.5617 60.8545 27.1499 57.4337 24.083L53.4285 28.5505C55.7748 30.654 57.7647 33.9648 59.2221 38.7711L64.964 37.03ZM57.4466 24.0946C54.0396 21.0045 49.9553 19.4389 45.3388 19.4389V25.4389C48.4779 25.4389 51.1219 26.4585 53.4157 28.5389L57.4466 24.0946ZM45.3388 19.4389C38.293 19.4389 32.7616 23.0695 28.8458 29.5957L33.9908 32.6827C37.0353 27.6085 40.7842 25.4389 45.3388 25.4389V19.4389ZM28.8458 29.5957C24.9539 36.0822 23.1822 45.4114 23.1484 57.1817L29.1484 57.1989C29.181 45.8348 30.9225 37.7965 33.9908 32.6827L28.8458 29.5957ZM23.1484 57.1903C23.1484 65.1882 23.9421 72.0282 25.6096 77.6338L31.3606 75.923C29.9125 71.0551 29.1484 64.8364 29.1484 57.1903H23.1484ZM25.6162 77.6555C27.3052 83.1801 29.7684 87.6345 33.18 90.7323L37.2135 86.2904C34.858 84.1515 32.8468 80.7839 31.354 75.9013L25.6162 77.6555ZM33.1941 90.7451C36.6288 93.8244 40.7229 95.3892 45.3388 95.3892V89.3892C42.199 89.3892 39.5317 88.3687 37.1994 86.2777L33.1941 90.7451ZM119.602 105.564L118.375 108.301L118.384 108.306L118.394 108.31L119.602 105.564ZM105.93 94.9247L103.507 96.6934L103.514 96.7034L103.522 96.7134L105.93 94.9247ZM100.809 79.2145V76.2145H97.7586L97.8097 79.2648L100.809 79.2145ZM122.485 79.2145L125.481 79.0547L125.33 76.2145H122.485V79.2145ZM124.922 85.777L122.567 87.6359L122.585 87.6587L122.603 87.6812L124.922 85.777ZM130.987 90.1023L129.854 92.8801V92.8801L130.987 90.1023ZM148.189 89.9034L146.934 87.1785L148.189 89.9034ZM154.105 85.081L156.57 86.7907L154.105 85.081ZM153.956 70.7628L151.502 72.4883L151.517 72.5102L151.533 72.5319L153.956 70.7628ZM147.493 65.7912L146.311 68.5487L146.323 68.5536L147.493 65.7912ZM128.054 64.0014H125.054V67.0014H128.054V64.0014ZM128.054 48.1918V45.1918H125.054V48.1918H128.054ZM146.15 46.5014L144.925 43.763L144.918 43.766L144.912 43.7691L146.15 46.5014ZM152.017 41.8281L154.474 43.5485L154.481 43.539L154.488 43.5294L152.017 41.8281ZM152.265 28.0568L149.704 29.6194L149.72 29.645L149.736 29.6703L152.265 28.0568ZM147.194 23.483L145.836 26.158L145.844 26.1621L145.853 26.1662L147.194 23.483ZM131.633 23.4332L132.806 26.1946L132.822 26.1878L132.838 26.1808L131.633 23.4332ZM125.816 27.858L128.206 29.6711V29.6711L125.816 27.858ZM123.48 34.6193V37.6193H126.367L126.478 34.7346L123.48 34.6193ZM102.848 34.6193L99.8481 34.5685L99.7964 37.6193H102.848V34.6193ZM107.869 19.108L110.297 20.8703H110.297L107.869 19.108ZM120.994 8.61789L122.243 11.3456L122.25 11.3423L120.994 8.61789ZM158.181 8.61789L159.489 5.91785H159.489L158.181 8.61789ZM170.461 18.9588L167.971 20.6317L167.978 20.6426L167.986 20.6535L170.461 18.9588ZM174.836 33.4758L171.836 33.4573L171.836 33.4753L171.836 33.4933L174.836 33.4758ZM169.517 47.7443L167.33 45.6906L167.32 45.7008L169.517 47.7443ZM155.646 55.0028L155.114 52.0504L152.646 52.4952V55.0028H155.646ZM155.646 55.7983H152.646V58.4379L155.264 58.7739L155.646 55.7983ZM172.748 63.6037L170.542 65.6371L170.551 65.646L170.559 65.6549L172.748 63.6037ZM178.615 79.4134L175.615 79.3976L175.615 79.4141L175.615 79.4305L178.615 79.4134ZM173.593 94.875L171.193 93.075L171.189 93.0807L171.185 93.0864L173.593 94.875ZM159.723 105.514L158.519 102.766L159.723 105.514ZM139.439 106.392C132.36 106.392 126.17 105.176 120.81 102.818L118.394 108.31C124.634 111.056 131.669 112.392 139.439 112.392V106.392ZM120.829 102.826C115.471 100.424 111.343 97.1818 108.339 93.1361L103.522 96.7134C107.212 101.683 112.199 105.533 118.375 108.301L120.829 102.826ZM108.353 93.156C105.424 89.1436 103.899 84.5148 103.809 79.1642L97.8097 79.2648C97.9189 85.7797 99.8069 91.6244 103.507 96.6934L108.353 93.156ZM100.809 82.2145H122.485V76.2145H100.809V82.2145ZM119.49 79.3743C119.654 82.4565 120.678 85.2427 122.567 87.6359L127.276 83.9181C126.183 82.5328 125.582 80.9441 125.481 79.0547L119.49 79.3743ZM122.603 87.6812C124.484 89.971 126.935 91.6897 129.854 92.8801L132.12 87.3245C130 86.46 128.408 85.2951 127.24 83.8728L122.603 87.6812ZM129.854 92.8801C132.785 94.0755 136.012 94.6435 139.488 94.6435V88.6435C136.668 88.6435 134.227 88.184 132.12 87.3245L129.854 92.8801ZM139.488 94.6435C143.124 94.6435 146.465 93.9998 149.443 92.6283L146.934 87.1785C144.874 88.1271 142.415 88.6435 139.488 88.6435V94.6435ZM149.443 92.6283C152.395 91.2692 154.807 89.3328 156.57 86.7907L151.64 83.3713C150.552 84.939 149.02 86.2176 146.934 87.1785L149.443 92.6283ZM156.57 86.7907C158.369 84.1961 159.243 81.22 159.243 77.9716H153.243C153.243 80.0925 152.691 81.856 151.64 83.3713L156.57 86.7907ZM159.243 77.9716C159.243 74.6525 158.298 71.6227 156.378 68.9937L151.533 72.5319C152.662 74.079 153.243 75.8551 153.243 77.9716H159.243ZM156.41 69.0373C154.541 66.3801 151.902 64.4008 148.663 63.0287L146.323 68.5536C148.717 69.5679 150.387 70.903 151.502 72.4883L156.41 69.0373ZM148.674 63.0338C145.431 61.6437 141.695 61.0014 137.549 61.0014V67.0014C141.093 67.0014 143.986 67.5523 146.311 68.5486L148.674 63.0338ZM137.549 61.0014H128.054V67.0014H137.549V61.0014ZM131.054 64.0014V48.1918H125.054V64.0014H131.054ZM128.054 51.1918H137.549V45.1918H128.054V51.1918ZM137.549 51.1918C141.145 51.1918 144.447 50.5674 147.389 49.2338L144.912 43.7691C142.882 44.6893 140.45 45.1918 137.549 45.1918V51.1918ZM147.375 49.2399C150.32 47.9223 152.73 46.04 154.474 43.5485L149.559 40.1077C148.519 41.5935 147.018 42.8267 144.925 43.763L147.375 49.2399ZM154.488 43.5294C156.257 40.9603 157.105 38.0011 157.105 34.7685H151.105C151.105 36.9051 150.561 38.6524 149.546 40.1268L154.488 43.5294ZM157.105 34.7685C157.105 31.715 156.364 28.9037 154.794 26.4434L149.736 29.6703C150.619 31.0546 151.105 32.7177 151.105 34.7685H157.105ZM154.826 26.4942C153.32 24.0253 151.191 22.1274 148.536 20.7997L145.853 26.1662C147.572 27.026 148.824 28.1773 149.704 29.6194L154.826 26.4942ZM148.552 20.808C145.903 19.463 142.902 18.8423 139.637 18.8423V24.8423C142.14 24.8423 144.177 25.3154 145.836 26.158L148.552 20.808ZM139.637 18.8423C136.35 18.8423 133.266 19.442 130.429 20.6856L132.838 26.1808C134.84 25.3033 137.092 24.8423 139.637 24.8423V18.8423ZM130.461 20.6719C127.604 21.885 125.229 23.6689 123.426 26.0448L128.206 29.6711C129.321 28.2023 130.824 27.0364 132.806 26.1946L130.461 20.6719ZM123.426 26.0448C121.569 28.4934 120.603 31.3507 120.482 34.504L126.478 34.7346C126.555 32.7175 127.147 31.0672 128.206 29.6711L123.426 26.0448ZM123.48 31.6193H102.848V37.6193H123.48V31.6193ZM105.847 34.6702C105.937 29.3795 107.433 24.8152 110.297 20.8703L105.441 17.3456C101.809 22.3496 99.9573 28.1262 99.8481 34.5685L105.847 34.6702ZM110.297 20.8703C113.213 16.8525 117.165 13.6704 122.243 11.3456L119.745 5.89018C113.819 8.60324 109.021 12.4145 105.441 17.3456L110.297 20.8703ZM122.25 11.3423C127.339 8.99588 133.149 7.78977 139.737 7.78977V1.78977C132.404 1.78977 125.719 3.13575 119.738 5.89354L122.25 11.3423ZM139.737 7.78977C146.4 7.78977 152.085 8.99887 156.874 11.3179L159.489 5.91785C153.738 3.13276 147.127 1.78977 139.737 1.78977V7.78977ZM156.874 11.3179C161.724 13.6667 165.385 16.7819 167.971 20.6317L172.952 17.2859C169.704 12.452 165.179 8.67323 159.489 5.91785L156.874 11.3179ZM167.986 20.6535C170.58 24.4429 171.866 28.6808 171.836 33.4573L177.836 33.4944C177.873 27.5323 176.242 22.0921 172.937 17.2641L167.986 20.6535ZM171.836 33.4933C171.865 38.5008 170.333 42.4926 167.33 45.6906L171.704 49.798C175.859 45.3729 177.873 39.8524 177.836 33.4584L171.836 33.4933ZM167.32 45.7008C164.265 48.9841 160.252 51.1244 155.114 52.0504L156.178 57.9553C162.442 56.8264 167.675 54.1277 171.713 49.7879L167.32 45.7008ZM152.646 55.0028V55.7983H158.646V55.0028H152.646ZM155.264 58.7739C162.274 59.6734 167.241 62.0555 170.542 65.6371L174.954 61.5703C170.434 56.667 163.999 53.8456 156.028 52.8227L155.264 58.7739ZM170.559 65.6549C173.925 69.2475 175.644 73.7529 175.615 79.3976L181.615 79.4291C181.651 72.4128 179.459 66.3784 174.937 61.5524L170.559 65.6549ZM175.615 79.4305C175.644 84.5965 174.169 89.1078 171.193 93.075L175.993 96.675C179.779 91.6271 181.651 85.8306 181.615 79.3962L175.615 79.4305ZM171.185 93.0864C168.192 97.1165 164.011 100.359 158.519 102.766L160.927 108.262C167.233 105.499 172.3 101.649 176.002 96.6636L171.185 93.0864ZM158.519 102.766C153.062 105.158 146.722 106.392 139.439 106.392V112.392C147.401 112.392 154.584 111.041 160.927 108.262L158.519 102.766Z" fill="white"/>
</g>
<defs>
<filter id="filter0_f_7_76" x="0.174011" y="0.789551" width="182.49" height="113.448" filterUnits="userSpaceOnUse" color-interpolation-filters="sRGB">
<feFlood flood-opacity="0" result="BackgroundImageFix"/>
<feBlend mode="normal" in="SourceGraphic" in2="BackgroundImageFix" result="shape"/>
<feGaussianBlur stdDeviation="2" result="effect1_foregroundBlur_7_76"/>
</filter>
</defs>
</svg>
