<svg width="400" height="400" viewBox="0 0 400 400" fill="none" xmlns="http://www.w3.org/2000/svg">
<circle cx="200" cy="200" r="200" fill="#ED2A52"/>
<path d="M91.2727 247L106.727 153.909H143.455C150.485 153.909 156.258 155.258 160.773 157.955C165.318 160.621 168.5 164.333 170.318 169.091C172.167 173.818 172.591 179.273 171.591 185.455C170.561 191.667 168.318 197.136 164.864 201.864C161.439 206.561 156.985 210.227 151.5 212.864C146.015 215.5 139.682 216.818 132.5 216.818H109.091L111.682 201.045H131.909C135.727 201.045 138.985 200.394 141.682 199.091C144.409 197.758 146.576 195.924 148.182 193.591C149.788 191.227 150.833 188.515 151.318 185.455C151.833 182.333 151.667 179.621 150.818 177.318C149.97 175.015 148.409 173.227 146.136 171.955C143.894 170.652 140.879 170 137.091 170H123.818L110.955 247H91.2727Z" fill="white"/>
<path d="M156.273 247L171.727 153.909H208.455C215.485 153.909 221.258 155.258 225.773 157.955C230.318 160.621 233.5 164.333 235.318 169.091C237.167 173.818 237.591 179.273 236.591 185.455C235.561 191.667 233.318 197.136 229.864 201.864C226.439 206.561 221.985 210.227 216.5 212.864C211.015 215.5 204.682 216.818 197.5 216.818H174.091L176.682 201.045H196.909C200.727 201.045 203.985 200.394 206.682 199.091C209.409 197.758 211.576 195.924 213.182 193.591C214.788 191.227 215.833 188.515 216.318 185.455C216.833 182.333 216.667 179.621 215.818 177.318C214.97 175.015 213.409 173.227 211.136 171.955C208.894 170.652 205.879 170 202.091 170H188.818L175.955 247H156.273Z" fill="white"/>
<path d="M225.273 247L240.727 153.909H260.409L253.636 194.955H254.864L295.136 153.909H318.727L277.409 195.591L303.682 247H280.136L261.136 208.727L249.409 220.636L244.955 247H225.273Z" fill="white"/>
</svg>
