<svg width="513" height="355" viewBox="0 0 513 355" fill="none" xmlns="http://www.w3.org/2000/svg">
<g clip-path="url(#clip0_3_311)">
<path d="M298.822 62.5824C308.436 62.5824 316.23 55.1665 316.23 46.0185C316.23 36.8706 308.436 29.4547 298.822 29.4547C289.207 29.4547 281.413 36.8706 281.413 46.0185C281.413 55.1665 289.207 62.5824 298.822 62.5824Z" fill="#F2F2F2"/>
<path d="M433.866 308.408C459.742 289.656 472.101 258.144 464.364 228.084C464.172 227.337 463.969 226.592 463.755 225.848C458.626 208.005 445.935 191.046 427.439 185.345C411.909 180.557 394.957 184.239 378.755 182.335C346.95 178.598 322.293 154.113 304.943 128.477C287.593 102.84 274.259 74.1444 251.205 52.9652C213.203 18.0548 151.214 10.5385 104.098 33.2626C56.9819 55.9868 26.9695 106.402 28.2495 156.647C29.5295 206.893 60.8792 254.93 106.407 280.418C123.132 289.781 142.476 296.413 161.727 294.092C178.431 292.079 193.609 283.539 210.235 281.003C236.374 277.017 262.346 288.262 284.955 301.366C307.563 314.469 329.401 330.001 355.092 336.076C380.038 341.974 410.944 325.02 433.866 308.408Z" fill="#F2F2F2"/>
<path d="M396.689 34.3177C396.121 33.9579 395.548 33.6167 394.98 33.2693C378.583 23.2915 361.009 15.1856 342.619 9.11911L338.355 65.0871H311.323V0.949104C309.622 0.614115 307.907 0.297737 306.192 -3.05176e-05V65.0871H274.068C256.384 65.0871 239.424 58.4029 226.919 46.505C214.414 34.6071 207.389 18.4701 207.389 1.64397C205.668 1.99757 203.96 2.37593 202.252 2.77915V65.0871H176.087L172.025 11.7184C153.127 18.6144 135.186 27.6829 118.601 38.7222C118.314 38.9083 118.027 39.1006 117.747 39.2867C116.306 40.2483 114.885 41.2284 113.47 42.221V255.739H190.581L189.218 237.78L181.72 139.175H332.715L325.217 237.78L323.855 255.739H400.112V36.4766C398.977 35.7446 397.836 35.0249 396.689 34.3177ZM202.252 122.891H180.482L176.459 69.9754H202.252V122.891ZM306.192 122.891H269.628V121.843C269.628 121.339 269.524 120.84 269.321 120.374C269.118 119.909 268.821 119.486 268.446 119.13C268.071 118.774 267.626 118.491 267.137 118.299C266.647 118.107 266.122 118.008 265.593 118.009H249.697C249.168 118.009 248.644 118.108 248.155 118.301C247.666 118.493 247.222 118.776 246.847 119.132C246.473 119.488 246.176 119.91 245.974 120.376C245.772 120.841 245.668 121.339 245.668 121.843V122.891H207.389V69.9754H306.192V122.891ZM311.323 122.891V69.9754H337.983L333.961 122.891H311.323Z" fill="#3F3D56"/>
<path d="M-1.52588e-05 269.412C5.664 275.798 11.7903 281.799 18.334 287.371L494.666 287.992C501.21 282.419 507.336 276.418 513 270.033L-1.52588e-05 269.412Z" fill="#3F3D56"/>
<path d="M323.016 211.906V265.073C323.017 265.75 323.3 266.4 323.803 266.879C324.307 267.358 324.99 267.627 325.702 267.628H408.508C409.22 267.627 409.902 267.358 410.406 266.879C410.909 266.4 411.193 265.75 411.193 265.073V211.906C411.191 211.229 410.908 210.58 410.405 210.102C409.901 209.624 409.219 209.355 408.508 209.354H325.702C324.99 209.355 324.308 209.624 323.805 210.102C323.301 210.58 323.018 211.229 323.016 211.906Z" fill="#3F3D56"/>
<path d="M324.959 212.568V264.417C324.959 264.779 325.111 265.126 325.38 265.382C325.649 265.638 326.014 265.782 326.394 265.782H407.818C408.199 265.782 408.563 265.638 408.832 265.382C409.102 265.126 409.253 264.779 409.254 264.417V212.568C409.254 212.205 409.102 211.858 408.833 211.601C408.564 211.344 408.199 211.2 407.818 211.199H326.394C326.013 211.2 325.648 211.344 325.379 211.601C325.11 211.858 324.959 212.205 324.959 212.568Z" fill="#ED2A52"/>
<path d="M321.284 275.441C321.436 275.622 321.629 275.768 321.848 275.868C322.068 275.968 322.308 276.019 322.551 276.018H411.217C411.46 276.018 411.699 275.966 411.918 275.867C412.137 275.768 412.329 275.623 412.482 275.444C412.635 275.265 412.744 275.055 412.801 274.831C412.858 274.607 412.862 274.373 412.812 274.148L411.436 267.927C411.379 267.673 411.256 267.437 411.078 267.24C410.901 267.043 410.674 266.892 410.42 266.799C410.235 266.731 410.039 266.695 409.841 266.696H323.922C323.724 266.695 323.528 266.731 323.343 266.799C323.089 266.892 322.862 267.043 322.685 267.24C322.507 267.437 322.385 267.673 322.328 267.927L320.951 274.148C320.902 274.373 320.907 274.606 320.964 274.83C321.022 275.054 321.131 275.263 321.284 275.441Z" fill="#2F2E41"/>
<path d="M406.798 269.375H408.893C409.068 269.375 409.211 269.239 409.211 269.072V268.119C409.211 267.951 409.068 267.816 408.893 267.816H406.798C406.623 267.816 406.48 267.951 406.48 268.119V269.072C406.48 269.239 406.623 269.375 406.798 269.375Z" fill="#3F3D56"/>
<path d="M401.337 269.375H403.431C403.607 269.375 403.749 269.239 403.749 269.072V268.119C403.749 267.951 403.607 267.816 403.431 267.816H401.337C401.161 267.816 401.018 267.951 401.018 268.119V269.072C401.018 269.239 401.161 269.375 401.337 269.375Z" fill="#3F3D56"/>
<path d="M395.875 269.375H397.969C398.145 269.375 398.287 269.239 398.287 269.072V268.119C398.287 267.951 398.145 267.816 397.969 267.816H395.875C395.699 267.816 395.557 267.951 395.557 268.119V269.072C395.557 269.239 395.699 269.375 395.875 269.375Z" fill="#3F3D56"/>
<path d="M390.413 269.375H392.508C392.683 269.375 392.826 269.239 392.826 269.072V268.119C392.826 267.951 392.683 267.816 392.508 267.816H390.413C390.237 267.816 390.095 267.951 390.095 268.119V269.072C390.095 269.239 390.237 269.375 390.413 269.375Z" fill="#3F3D56"/>
<path d="M384.952 269.375H387.046C387.222 269.375 387.364 269.239 387.364 269.072V268.119C387.364 267.951 387.222 267.816 387.046 267.816H384.952C384.776 267.816 384.633 267.951 384.633 268.119V269.072C384.633 269.239 384.776 269.375 384.952 269.375Z" fill="#3F3D56"/>
<path d="M379.49 269.375H381.584C381.76 269.375 381.902 269.239 381.902 269.072V268.119C381.902 267.951 381.76 267.816 381.584 267.816H379.49C379.314 267.816 379.171 267.951 379.171 268.119V269.072C379.171 269.239 379.314 269.375 379.49 269.375Z" fill="#3F3D56"/>
<path d="M374.028 269.375H376.122C376.298 269.375 376.441 269.239 376.441 269.072V268.119C376.441 267.951 376.298 267.816 376.122 267.816H374.028C373.852 267.816 373.71 267.951 373.71 268.119V269.072C373.71 269.239 373.852 269.375 374.028 269.375Z" fill="#3F3D56"/>
<path d="M368.566 269.375H370.661C370.836 269.375 370.979 269.239 370.979 269.072V268.119C370.979 267.951 370.836 267.816 370.661 267.816H368.566C368.391 267.816 368.248 267.951 368.248 268.119V269.072C368.248 269.239 368.391 269.375 368.566 269.375Z" fill="#3F3D56"/>
<path d="M363.105 269.375H365.199C365.375 269.375 365.517 269.239 365.517 269.072V268.119C365.517 267.951 365.375 267.816 365.199 267.816H363.105C362.929 267.816 362.786 267.951 362.786 268.119V269.072C362.786 269.239 362.929 269.375 363.105 269.375Z" fill="#3F3D56"/>
<path d="M357.643 269.375H359.737C359.913 269.375 360.055 269.239 360.055 269.072V268.119C360.055 267.951 359.913 267.816 359.737 267.816H357.643C357.467 267.816 357.325 267.951 357.325 268.119V269.072C357.325 269.239 357.467 269.375 357.643 269.375Z" fill="#3F3D56"/>
<path d="M352.181 269.375H354.275C354.451 269.375 354.594 269.239 354.594 269.072V268.119C354.594 267.951 354.451 267.816 354.275 267.816H352.181C352.005 267.816 351.863 267.951 351.863 268.119V269.072C351.863 269.239 352.005 269.375 352.181 269.375Z" fill="#3F3D56"/>
<path d="M346.719 269.375H348.814C348.989 269.375 349.132 269.239 349.132 269.072V268.119C349.132 267.951 348.989 267.816 348.814 267.816H346.719C346.544 267.816 346.401 267.951 346.401 268.119V269.072C346.401 269.239 346.544 269.375 346.719 269.375Z" fill="#3F3D56"/>
<path d="M341.258 269.375H343.352C343.528 269.375 343.67 269.239 343.67 269.072V268.119C343.67 267.951 343.528 267.816 343.352 267.816H341.258C341.082 267.816 340.939 267.951 340.939 268.119V269.072C340.939 269.239 341.082 269.375 341.258 269.375Z" fill="#3F3D56"/>
<path d="M335.796 269.375H337.89C338.066 269.375 338.209 269.239 338.209 269.072V268.119C338.209 267.951 338.066 267.816 337.89 267.816H335.796C335.62 267.816 335.478 267.951 335.478 268.119V269.072C335.478 269.239 335.62 269.375 335.796 269.375Z" fill="#3F3D56"/>
<path d="M330.334 269.375H332.429C332.604 269.375 332.747 269.239 332.747 269.072V268.119C332.747 267.951 332.604 267.816 332.429 267.816H330.334C330.158 267.816 330.016 267.951 330.016 268.119V269.072C330.016 269.239 330.158 269.375 330.334 269.375Z" fill="#3F3D56"/>
<path d="M324.873 269.375H326.967C327.143 269.375 327.285 269.239 327.285 269.072V268.119C327.285 267.951 327.143 267.816 326.967 267.816H324.873C324.697 267.816 324.554 267.951 324.554 268.119V269.072C324.554 269.239 324.697 269.375 324.873 269.375Z" fill="#3F3D56"/>
<path d="M406.863 271.973H408.957C409.133 271.973 409.276 271.837 409.276 271.67V270.717C409.276 270.55 409.133 270.414 408.957 270.414H406.863C406.687 270.414 406.545 270.55 406.545 270.717V271.67C406.545 271.837 406.687 271.973 406.863 271.973Z" fill="#3F3D56"/>
<path d="M401.401 271.973H403.496C403.671 271.973 403.814 271.837 403.814 271.67V270.717C403.814 270.55 403.671 270.414 403.496 270.414H401.401C401.225 270.414 401.083 270.55 401.083 270.717V271.67C401.083 271.837 401.225 271.973 401.401 271.973Z" fill="#3F3D56"/>
<path d="M395.939 271.973H398.034C398.21 271.973 398.352 271.837 398.352 271.67V270.717C398.352 270.55 398.21 270.414 398.034 270.414H395.939C395.764 270.414 395.621 270.55 395.621 270.717V271.67C395.621 271.837 395.764 271.973 395.939 271.973Z" fill="#3F3D56"/>
<path d="M390.478 271.973H392.572C392.748 271.973 392.89 271.837 392.89 271.67V270.717C392.89 270.55 392.748 270.414 392.572 270.414H390.478C390.302 270.414 390.159 270.55 390.159 270.717V271.67C390.159 271.837 390.302 271.973 390.478 271.973Z" fill="#3F3D56"/>
<path d="M385.016 271.973H387.11C387.286 271.973 387.429 271.837 387.429 271.67V270.717C387.429 270.55 387.286 270.414 387.11 270.414H385.016C384.84 270.414 384.698 270.55 384.698 270.717V271.67C384.698 271.837 384.84 271.973 385.016 271.973Z" fill="#3F3D56"/>
<path d="M379.554 271.973H381.649C381.824 271.973 381.967 271.837 381.967 271.67V270.717C381.967 270.55 381.824 270.414 381.649 270.414H379.554C379.379 270.414 379.236 270.55 379.236 270.717V271.67C379.236 271.837 379.379 271.973 379.554 271.973Z" fill="#3F3D56"/>
<path d="M374.093 271.973H376.187C376.363 271.973 376.505 271.837 376.505 271.67V270.717C376.505 270.55 376.363 270.414 376.187 270.414H374.093C373.917 270.414 373.774 270.55 373.774 270.717V271.67C373.774 271.837 373.917 271.973 374.093 271.973Z" fill="#3F3D56"/>
<path d="M368.631 271.973H370.725C370.901 271.973 371.043 271.837 371.043 271.67V270.717C371.043 270.55 370.901 270.414 370.725 270.414H368.631C368.455 270.414 368.313 270.55 368.313 270.717V271.67C368.313 271.837 368.455 271.973 368.631 271.973Z" fill="#3F3D56"/>
<path d="M363.169 271.973H365.263C365.439 271.973 365.582 271.837 365.582 271.67V270.717C365.582 270.55 365.439 270.414 365.263 270.414H363.169C362.993 270.414 362.851 270.55 362.851 270.717V271.67C362.851 271.837 362.993 271.973 363.169 271.973Z" fill="#3F3D56"/>
<path d="M357.707 271.973H359.802C359.977 271.973 360.12 271.837 360.12 271.67V270.717C360.12 270.55 359.977 270.414 359.802 270.414H357.707C357.532 270.414 357.389 270.55 357.389 270.717V271.67C357.389 271.837 357.532 271.973 357.707 271.973Z" fill="#3F3D56"/>
<path d="M352.246 271.973H354.34C354.516 271.973 354.658 271.837 354.658 271.67V270.717C354.658 270.55 354.516 270.414 354.34 270.414H352.246C352.07 270.414 351.927 270.55 351.927 270.717V271.67C351.927 271.837 352.07 271.973 352.246 271.973Z" fill="#3F3D56"/>
<path d="M346.784 271.973H348.878C349.054 271.973 349.197 271.837 349.197 271.67V270.717C349.197 270.55 349.054 270.414 348.878 270.414H346.784C346.608 270.414 346.466 270.55 346.466 270.717V271.67C346.466 271.837 346.608 271.973 346.784 271.973Z" fill="#3F3D56"/>
<path d="M341.322 271.973H343.417C343.592 271.973 343.735 271.837 343.735 271.67V270.717C343.735 270.55 343.592 270.414 343.417 270.414H341.322C341.147 270.414 341.004 270.55 341.004 270.717V271.67C341.004 271.837 341.147 271.973 341.322 271.973Z" fill="#3F3D56"/>
<path d="M335.861 271.973H337.955C338.131 271.973 338.273 271.837 338.273 271.67V270.717C338.273 270.55 338.131 270.414 337.955 270.414H335.861C335.685 270.414 335.542 270.55 335.542 270.717V271.67C335.542 271.837 335.685 271.973 335.861 271.973Z" fill="#3F3D56"/>
<path d="M330.399 271.973H332.493C332.669 271.973 332.811 271.837 332.811 271.67V270.717C332.811 270.55 332.669 270.414 332.493 270.414H330.399C330.223 270.414 330.081 270.55 330.081 270.717V271.67C330.081 271.837 330.223 271.973 330.399 271.973Z" fill="#3F3D56"/>
<path d="M324.937 271.973H327.031C327.207 271.973 327.35 271.837 327.35 271.67V270.717C327.35 270.55 327.207 270.414 327.031 270.414H324.937C324.761 270.414 324.619 270.55 324.619 270.717V271.67C324.619 271.837 324.761 271.973 324.937 271.973Z" fill="#3F3D56"/>
<path d="M361.531 275.091H382.741C382.917 275.091 383.059 274.955 383.059 274.788V273.835C383.059 273.668 382.917 273.532 382.741 273.532H361.531C361.355 273.532 361.212 273.668 361.212 273.835V274.788C361.212 274.955 361.355 275.091 361.531 275.091Z" fill="#3F3D56"/>
<path d="M339.059 222.542H337.205C336.643 222.542 336.187 222.976 336.187 223.511C336.187 224.046 336.643 224.479 337.205 224.479H339.059C339.621 224.479 340.077 224.046 340.077 223.511C340.077 222.976 339.621 222.542 339.059 222.542Z" fill="white"/>
<path d="M360.264 222.542H358.41C357.848 222.542 357.392 222.976 357.392 223.511C357.392 224.046 357.848 224.479 358.41 224.479H360.264C360.826 224.479 361.282 224.046 361.282 223.511C361.282 222.976 360.826 222.542 360.264 222.542Z" fill="white"/>
<path d="M366.272 222.542H364.418C363.856 222.542 363.4 222.976 363.4 223.511C363.4 224.046 363.856 224.479 364.418 224.479H366.272C366.834 224.479 367.29 224.046 367.29 223.511C367.29 222.976 366.834 222.542 366.272 222.542Z" fill="white"/>
<path d="M354.496 222.381H342.973C342.411 222.381 341.955 222.815 341.955 223.349C341.955 223.884 342.411 224.318 342.973 224.318H354.496C355.058 224.318 355.514 223.884 355.514 223.349C355.514 222.815 355.058 222.381 354.496 222.381Z" fill="white"/>
<path d="M382.769 222.381H371.246C370.684 222.381 370.228 222.815 370.228 223.349C370.228 223.884 370.684 224.318 371.246 224.318H382.769C383.331 224.318 383.787 223.884 383.787 223.349C383.787 222.815 383.331 222.381 382.769 222.381Z" fill="white"/>
<path d="M344.714 226.914H342.859C342.297 226.914 341.842 227.347 341.842 227.882C341.842 228.417 342.297 228.851 342.859 228.851H344.714C345.276 228.851 345.731 228.417 345.731 227.882C345.731 227.347 345.276 226.914 344.714 226.914Z" fill="white"/>
<path d="M365.918 226.914H364.064C363.502 226.914 363.046 227.347 363.046 227.882C363.046 228.417 363.502 228.851 364.064 228.851H365.918C366.48 228.851 366.936 228.417 366.936 227.882C366.936 227.347 366.48 226.914 365.918 226.914Z" fill="white"/>
<path d="M371.926 226.914H370.072C369.51 226.914 369.054 227.347 369.054 227.882C369.054 228.417 369.51 228.851 370.072 228.851H371.926C372.488 228.851 372.944 228.417 372.944 227.882C372.944 227.347 372.488 226.914 371.926 226.914Z" fill="white"/>
<path d="M360.151 226.752H348.627C348.065 226.752 347.609 227.186 347.609 227.721C347.609 228.256 348.065 228.689 348.627 228.689H360.151C360.713 228.689 361.168 228.256 361.168 227.721C361.168 227.186 360.713 226.752 360.151 226.752Z" fill="white"/>
<path d="M388.424 226.752H376.9C376.338 226.752 375.882 227.186 375.882 227.721C375.882 228.256 376.338 228.689 376.9 228.689H388.424C388.986 228.689 389.441 228.256 389.441 227.721C389.441 227.186 388.986 226.752 388.424 226.752Z" fill="white"/>
<path d="M350.368 231.285H348.514C347.952 231.285 347.496 231.719 347.496 232.254C347.496 232.789 347.952 233.222 348.514 233.222H350.368C350.93 233.222 351.386 232.789 351.386 232.254C351.386 231.719 350.93 231.285 350.368 231.285Z" fill="white"/>
<path d="M371.573 231.285H369.719C369.157 231.285 368.701 231.719 368.701 232.254C368.701 232.789 369.157 233.222 369.719 233.222H371.573C372.135 233.222 372.591 232.789 372.591 232.254C372.591 231.719 372.135 231.285 371.573 231.285Z" fill="white"/>
<path d="M377.581 231.285H375.727C375.165 231.285 374.709 231.719 374.709 232.254C374.709 232.789 375.165 233.222 375.727 233.222H377.581C378.143 233.222 378.599 232.789 378.599 232.254C378.599 231.719 378.143 231.285 377.581 231.285Z" fill="white"/>
<path d="M365.805 231.124H354.282C353.72 231.124 353.264 231.557 353.264 232.092C353.264 232.627 353.72 233.061 354.282 233.061H365.805C366.367 233.061 366.823 232.627 366.823 232.092C366.823 231.557 366.367 231.124 365.805 231.124Z" fill="white"/>
<path d="M394.078 231.124H382.555C381.993 231.124 381.537 231.557 381.537 232.092C381.537 232.627 381.993 233.061 382.555 233.061H394.078C394.64 233.061 395.096 232.627 395.096 232.092C395.096 231.557 394.64 231.124 394.078 231.124Z" fill="white"/>
<path d="M356.023 235.657H354.169C353.607 235.657 353.151 236.09 353.151 236.625C353.151 237.16 353.607 237.593 354.169 237.593H356.023C356.585 237.593 357.041 237.16 357.041 236.625C357.041 236.09 356.585 235.657 356.023 235.657Z" fill="white"/>
<path d="M377.228 235.657H375.373C374.811 235.657 374.356 236.09 374.356 236.625C374.356 237.16 374.811 237.593 375.373 237.593H377.228C377.79 237.593 378.245 237.16 378.245 236.625C378.245 236.09 377.79 235.657 377.228 235.657Z" fill="white"/>
<path d="M383.236 235.657H381.381C380.819 235.657 380.364 236.09 380.364 236.625C380.364 237.16 380.819 237.593 381.381 237.593H383.236C383.798 237.593 384.253 237.16 384.253 236.625C384.253 236.09 383.798 235.657 383.236 235.657Z" fill="white"/>
<path d="M371.46 235.495H359.936C359.374 235.495 358.919 235.929 358.919 236.464C358.919 236.998 359.374 237.432 359.936 237.432H371.46C372.022 237.432 372.478 236.998 372.478 236.464C372.478 235.929 372.022 235.495 371.46 235.495Z" fill="white"/>
<path d="M360.264 253.039H358.41C357.848 253.039 357.392 253.473 357.392 254.008C357.392 254.542 357.848 254.976 358.41 254.976H360.264C360.826 254.976 361.282 254.542 361.282 254.008C361.282 253.473 360.826 253.039 360.264 253.039Z" fill="white"/>
<path d="M366.272 253.039H364.418C363.856 253.039 363.4 253.473 363.4 254.008C363.4 254.542 363.856 254.976 364.418 254.976H366.272C366.834 254.976 367.29 254.542 367.29 254.008C367.29 253.473 366.834 253.039 366.272 253.039Z" fill="white"/>
<path d="M382.769 253.201H371.246C370.684 253.201 370.228 253.634 370.228 254.169C370.228 254.704 370.684 255.137 371.246 255.137H382.769C383.331 255.137 383.787 254.704 383.787 254.169C383.787 253.634 383.331 253.201 382.769 253.201Z" fill="white"/>
<path d="M339.059 253.039H337.205C336.643 253.039 336.187 253.473 336.187 254.008C336.187 254.542 336.643 254.976 337.205 254.976H339.059C339.621 254.976 340.077 254.542 340.077 254.008C340.077 253.473 339.621 253.039 339.059 253.039Z" fill="white"/>
<path d="M354.496 253.201H342.973C342.411 253.201 341.955 253.634 341.955 254.169C341.955 254.704 342.411 255.137 342.973 255.137H354.496C355.058 255.137 355.514 254.704 355.514 254.169C355.514 253.634 355.058 253.201 354.496 253.201Z" fill="white"/>
<path d="M344.714 248.668H342.859C342.297 248.668 341.842 249.101 341.842 249.636C341.842 250.171 342.297 250.605 342.859 250.605H344.714C345.276 250.605 345.731 250.171 345.731 249.636C345.731 249.101 345.276 248.668 344.714 248.668Z" fill="white"/>
<path d="M365.918 248.668H364.064C363.502 248.668 363.046 249.101 363.046 249.636C363.046 250.171 363.502 250.605 364.064 250.605H365.918C366.48 250.605 366.936 250.171 366.936 249.636C366.936 249.101 366.48 248.668 365.918 248.668Z" fill="white"/>
<path d="M371.926 248.668H370.072C369.51 248.668 369.054 249.101 369.054 249.636C369.054 250.171 369.51 250.605 370.072 250.605H371.926C372.488 250.605 372.944 250.171 372.944 249.636C372.944 249.101 372.488 248.668 371.926 248.668Z" fill="white"/>
<path d="M360.151 248.829H348.627C348.065 248.829 347.609 249.263 347.609 249.798C347.609 250.333 348.065 250.766 348.627 250.766H360.151C360.713 250.766 361.168 250.333 361.168 249.798C361.168 249.263 360.713 248.829 360.151 248.829Z" fill="white"/>
<path d="M350.368 244.296H348.514C347.952 244.296 347.496 244.73 347.496 245.265C347.496 245.8 347.952 246.233 348.514 246.233H350.368C350.93 246.233 351.386 245.8 351.386 245.265C351.386 244.73 350.93 244.296 350.368 244.296Z" fill="white"/>
<path d="M371.573 244.296H369.719C369.157 244.296 368.701 244.73 368.701 245.265C368.701 245.8 369.157 246.233 369.719 246.233H371.573C372.135 246.233 372.591 245.8 372.591 245.265C372.591 244.73 372.135 244.296 371.573 244.296Z" fill="white"/>
<path d="M377.581 244.296H375.727C375.165 244.296 374.709 244.73 374.709 245.265C374.709 245.8 375.165 246.233 375.727 246.233H377.581C378.143 246.233 378.599 245.8 378.599 245.265C378.599 244.73 378.143 244.296 377.581 244.296Z" fill="white"/>
<path d="M365.805 244.458H354.282C353.72 244.458 353.264 244.891 353.264 245.426C353.264 245.961 353.72 246.395 354.282 246.395H365.805C366.367 246.395 366.823 245.961 366.823 245.426C366.823 244.891 366.367 244.458 365.805 244.458Z" fill="white"/>
<path d="M356.023 239.925H354.169C353.607 239.925 353.151 240.359 353.151 240.893C353.151 241.428 353.607 241.862 354.169 241.862H356.023C356.585 241.862 357.041 241.428 357.041 240.893C357.041 240.359 356.585 239.925 356.023 239.925Z" fill="white"/>
<path d="M377.228 239.925H375.373C374.811 239.925 374.356 240.359 374.356 240.893C374.356 241.428 374.811 241.862 375.373 241.862H377.228C377.79 241.862 378.245 241.428 378.245 240.893C378.245 240.359 377.79 239.925 377.228 239.925Z" fill="white"/>
<path d="M383.236 239.925H381.381C380.819 239.925 380.364 240.359 380.364 240.893C380.364 241.428 380.819 241.862 381.381 241.862H383.236C383.798 241.862 384.253 241.428 384.253 240.893C384.253 240.359 383.798 239.925 383.236 239.925Z" fill="white"/>
<path d="M371.46 240.086H359.936C359.374 240.086 358.919 240.52 358.919 241.055C358.919 241.59 359.374 242.023 359.936 242.023H371.46C372.022 242.023 372.478 241.59 372.478 241.055C372.478 240.52 372.022 240.086 371.46 240.086Z" fill="white"/>
<path d="M329.202 304.27L320.498 291.18L347.818 270.458L359.094 258.572C360.559 257.028 362.425 255.876 364.504 255.233C366.583 254.589 368.803 254.476 370.943 254.905C373.082 255.334 375.066 256.289 376.696 257.676C378.326 259.063 379.545 260.832 380.23 262.808C381.247 265.735 381.028 268.923 379.621 271.7C378.213 274.477 375.727 276.625 372.687 277.69L354.856 283.941L329.202 304.27Z" fill="#FFB6B6"/>
<path d="M124.98 209.356V272.979H171.826V209.356C171.827 208.899 171.673 208.453 171.388 208.084C171.103 207.716 170.701 207.444 170.242 207.309C170.025 207.241 169.798 207.207 169.57 207.21H127.243C126.946 207.209 126.652 207.264 126.378 207.372C126.103 207.48 125.854 207.637 125.644 207.837C125.434 208.036 125.267 208.273 125.153 208.534C125.039 208.794 124.981 209.074 124.98 209.356ZM143.262 231.217C143.274 229.963 143.807 228.764 144.743 227.881C145.68 226.998 146.945 226.503 148.263 226.503C149.581 226.503 150.846 226.998 151.783 227.881C152.719 228.764 153.251 229.963 153.264 231.217V238.599C153.257 239.857 152.727 241.061 151.79 241.948C150.853 242.835 149.585 243.333 148.263 243.333C146.941 243.333 145.673 242.835 144.736 241.948C143.799 241.061 143.269 239.857 143.262 238.599V231.217Z" fill="#2F2E41"/>
<path d="M124.837 270.945V277.08C124.838 277.398 124.971 277.702 125.206 277.928C125.442 278.153 125.761 278.281 126.095 278.283H170.711C171.045 278.282 171.365 278.154 171.601 277.929C171.837 277.703 171.969 277.398 171.969 277.08V270.945H124.837Z" fill="#3F3D56"/>
<path d="M51.2856 113.5V229.666C51.2869 231.147 51.9055 232.566 53.0057 233.613C54.1059 234.66 55.5977 235.248 57.1536 235.25H238.081C239.637 235.248 241.129 234.66 242.229 233.613C243.329 232.566 243.948 231.147 243.949 229.666V113.5C243.945 112.021 243.326 110.603 242.226 109.558C241.126 108.513 239.636 107.925 238.081 107.923H57.1536C55.599 107.925 54.1086 108.513 53.0088 109.558C51.909 110.603 51.2894 112.021 51.2856 113.5Z" fill="#3F3D56"/>
<path d="M55.5301 114.945V228.233C55.5316 229.024 55.8624 229.783 56.4502 230.342C57.038 230.901 57.8349 231.216 58.6662 231.217H236.575C237.406 231.216 238.203 230.901 238.791 230.342C239.379 229.783 239.71 229.024 239.711 228.233V114.945C239.711 114.153 239.381 113.394 238.793 112.833C238.205 112.273 237.407 111.957 236.575 111.955H58.6662C57.8339 111.957 57.0363 112.273 56.4484 112.833C55.8604 113.394 55.5302 114.153 55.5301 114.945Z" fill="white"/>
<path d="M88.547 277.868C88.7281 278.084 88.9582 278.258 89.2202 278.377C89.4822 278.496 89.7692 278.558 90.0596 278.556H195.904C196.193 278.556 196.479 278.494 196.74 278.375C197.002 278.257 197.232 278.084 197.414 277.87C197.596 277.657 197.726 277.407 197.795 277.139C197.863 276.871 197.867 276.592 197.808 276.323L196.165 268.897C196.097 268.595 195.95 268.313 195.738 268.078C195.526 267.842 195.256 267.662 194.952 267.551C194.732 267.469 194.497 267.427 194.261 267.427H91.6961C91.4596 267.427 91.2252 267.469 91.005 267.551C90.7009 267.661 90.4306 267.842 90.2188 268.078C90.007 268.313 89.8604 268.594 89.7923 268.897L88.1493 276.323C88.0908 276.592 88.0962 276.871 88.165 277.138C88.2338 277.405 88.3643 277.654 88.547 277.868Z" fill="#2F2E41"/>
<path d="M230.801 127.561H64.3327C64.1597 127.557 63.9951 127.489 63.8741 127.372C63.753 127.254 63.6853 127.096 63.6853 126.931C63.6853 126.766 63.753 126.608 63.8741 126.491C63.9951 126.373 64.1597 126.305 64.3327 126.301H230.801C230.974 126.305 231.139 126.373 231.26 126.491C231.381 126.608 231.449 126.766 231.449 126.931C231.449 127.096 231.381 127.254 231.26 127.372C231.139 127.489 230.974 127.557 230.801 127.561Z" fill="#3F3D56"/>
<path d="M75.6645 123.085C77.8071 123.085 79.5441 121.396 79.5441 119.312C79.5441 117.228 77.8071 115.538 75.6645 115.538C73.5218 115.538 71.7849 117.228 71.7849 119.312C71.7849 121.396 73.5218 123.085 75.6645 123.085Z" fill="#3F3D56"/>
<path d="M89.0668 123.085C91.2095 123.085 92.9464 121.396 92.9464 119.312C92.9464 117.228 91.2095 115.538 89.0668 115.538C86.9242 115.538 85.1872 117.228 85.1872 119.312C85.1872 121.396 86.9242 123.085 89.0668 123.085Z" fill="#3F3D56"/>
<path d="M102.469 123.085C104.612 123.085 106.349 121.396 106.349 119.312C106.349 117.228 104.612 115.538 102.469 115.538C100.327 115.538 98.5896 117.228 98.5896 119.312C98.5896 121.396 100.327 123.085 102.469 123.085Z" fill="#3F3D56"/>
<path d="M222.731 116.471H213.212C213.024 116.475 212.845 116.549 212.713 116.678C212.582 116.806 212.508 116.978 212.508 117.157C212.508 117.336 212.582 117.508 212.713 117.636C212.845 117.764 213.024 117.838 213.212 117.842H222.731C222.92 117.84 223.101 117.766 223.234 117.638C223.367 117.51 223.441 117.337 223.441 117.157C223.441 116.977 223.367 116.804 223.234 116.675C223.101 116.547 222.92 116.474 222.731 116.471Z" fill="#3F3D56"/>
<path d="M222.731 119.046H213.212C213.024 119.05 212.844 119.124 212.713 119.252C212.581 119.38 212.507 119.552 212.507 119.731C212.507 119.91 212.581 120.082 212.713 120.211C212.844 120.339 213.024 120.413 213.212 120.417H222.731C222.921 120.414 223.102 120.341 223.235 120.213C223.368 120.085 223.443 119.912 223.443 119.731C223.443 119.551 223.368 119.378 223.235 119.249C223.102 119.121 222.921 119.048 222.731 119.046Z" fill="#3F3D56"/>
<path d="M222.731 121.62H213.212C213.024 121.624 212.845 121.698 212.713 121.826C212.582 121.955 212.508 122.126 212.508 122.306C212.508 122.485 212.582 122.657 212.713 122.785C212.845 122.913 213.024 122.987 213.212 122.991H222.731C222.92 122.989 223.101 122.915 223.234 122.787C223.367 122.659 223.441 122.486 223.441 122.306C223.441 122.125 223.367 121.953 223.234 121.824C223.101 121.696 222.92 121.623 222.731 121.62Z" fill="#3F3D56"/>
<path d="M452.219 273.637C452.506 274.433 453.051 275.122 453.775 275.604C454.499 276.087 455.366 276.339 456.25 276.324L473.522 275.901C474.413 275.884 475.274 275.594 475.977 275.073C476.68 274.553 477.187 273.829 477.422 273.012L479.866 248.144C480.733 248.518 481.677 248.702 482.629 248.684C483.456 248.664 484.271 248.49 485.027 248.17C485.783 247.851 486.466 247.393 487.036 246.823C487.606 246.252 488.052 245.581 488.349 244.846C488.647 244.112 488.789 243.329 488.768 242.542C488.747 241.755 488.564 240.98 488.228 240.261C487.893 239.541 487.411 238.892 486.812 238.349C486.213 237.807 485.507 237.382 484.735 237.1C483.963 236.817 483.14 236.681 482.313 236.701C481.933 236.7 481.553 236.737 481.181 236.813C480.776 236.397 480.285 236.065 479.737 235.841C479.19 235.616 478.599 235.503 478.003 235.508L451.434 236.161C451.214 236.169 450.995 236.195 450.779 236.239C450.196 236.342 449.644 236.563 449.158 236.886C448.673 237.21 448.266 237.629 447.965 238.115C447.664 238.6 447.476 239.142 447.413 239.703C447.35 240.263 447.415 240.83 447.602 241.366L452.219 273.637ZM480.367 246.455L482.107 240.529C482.304 239.845 482.309 239.123 482.12 238.436C482.204 238.436 482.279 238.398 482.363 238.397C483.556 238.374 484.709 238.801 485.571 239.586C486.433 240.371 486.933 241.448 486.961 242.583C486.989 243.718 486.542 244.817 485.72 245.639C484.898 246.461 483.766 246.939 482.574 246.969C481.803 246.992 481.04 246.814 480.367 246.455Z" fill="#2F2E41"/>
<path d="M450.779 236.239C451.345 239.318 457.709 241.483 465.361 241.107C472.398 240.798 478.152 238.447 479.206 235.661C478.816 235.551 478.41 235.5 478.003 235.508L451.434 236.161C451.214 236.169 450.995 236.195 450.779 236.239Z" fill="#3F3D56"/>
<path d="M466.764 259.972C466.799 259.963 466.832 259.95 466.862 259.931L470.613 257.595C470.658 257.567 470.696 257.528 470.721 257.483C470.747 257.438 470.761 257.387 470.761 257.335C470.761 257.284 470.747 257.233 470.722 257.188C470.696 257.143 470.659 257.104 470.613 257.076L466.714 254.646C466.679 254.624 466.639 254.608 466.596 254.6C466.554 254.593 466.511 254.593 466.469 254.601C466.427 254.609 466.387 254.625 466.352 254.648C466.316 254.671 466.286 254.701 466.262 254.735C466.239 254.769 466.222 254.807 466.215 254.847C466.207 254.887 466.207 254.929 466.216 254.969C466.225 255.008 466.242 255.046 466.266 255.08C466.29 255.114 466.321 255.143 466.357 255.165L469.839 257.335L466.505 259.412C466.441 259.452 466.393 259.513 466.371 259.583C466.349 259.653 466.354 259.729 466.385 259.796C466.416 259.863 466.471 259.918 466.54 259.95C466.61 259.982 466.689 259.99 466.764 259.972Z" fill="#ED2A52"/>
<path d="M460.839 260.232C460.902 260.217 460.959 260.184 461.002 260.138C461.045 260.092 461.073 260.035 461.082 259.973C461.091 259.912 461.08 259.85 461.052 259.794C461.023 259.739 460.978 259.693 460.921 259.662L457.464 257.776L460.806 255.414C460.84 255.39 460.869 255.359 460.891 255.325C460.913 255.29 460.927 255.251 460.934 255.211C460.94 255.17 460.938 255.129 460.927 255.09C460.917 255.05 460.898 255.013 460.873 254.981C460.847 254.948 460.815 254.92 460.779 254.899C460.742 254.879 460.701 254.865 460.659 254.859C460.616 254.853 460.573 254.855 460.532 254.865C460.49 254.875 460.451 254.892 460.417 254.917L456.675 257.561C456.632 257.592 456.597 257.632 456.574 257.679C456.551 257.725 456.541 257.777 456.544 257.828C456.547 257.88 456.564 257.929 456.593 257.973C456.621 258.017 456.661 258.053 456.708 258.079L460.597 260.2C460.67 260.24 460.757 260.252 460.839 260.232Z" fill="#ED2A52"/>
<path d="M466.391 262.019C466.422 262.011 466.452 261.999 466.48 261.983C466.516 261.962 466.548 261.934 466.574 261.901C466.599 261.868 466.617 261.831 466.627 261.792C466.637 261.752 466.639 261.711 466.633 261.671C466.626 261.63 466.611 261.592 466.589 261.557L461.272 253.239C461.227 253.169 461.154 253.119 461.07 253.099C460.986 253.08 460.898 253.093 460.824 253.136C460.75 253.179 460.697 253.248 460.677 253.327C460.656 253.407 460.67 253.492 460.715 253.562L466.032 261.88C466.068 261.936 466.123 261.98 466.187 262.005C466.252 262.031 466.323 262.035 466.391 262.019Z" fill="#ED2A52"/>
<path d="M167.457 161.804H138.645C137.47 161.804 136.517 162.711 136.517 163.829V166.507C136.517 167.626 137.47 168.532 138.645 168.532H167.457C168.633 168.532 169.585 167.626 169.585 166.507V163.829C169.585 162.711 168.633 161.804 167.457 161.804Z" fill="#ED2A52"/>
<path d="M184.252 175.26H121.851C120.675 175.26 119.723 176.167 119.723 177.285V179.964C119.723 181.082 120.675 181.988 121.851 181.988H184.252C185.427 181.988 186.38 181.082 186.38 179.964V177.285C186.38 176.167 185.427 175.26 184.252 175.26Z" fill="#E6E6E6"/>
<path d="M184.252 188.717H121.851C120.675 188.717 119.723 189.623 119.723 190.741V193.42C119.723 194.538 120.675 195.445 121.851 195.445H184.252C185.427 195.445 186.38 194.538 186.38 193.42V190.741C186.38 189.623 185.427 188.717 184.252 188.717Z" fill="#E6E6E6"/>
<path d="M189.541 233.776L189.683 234.201L189.69 234.215L193.944 246.522L198.838 260.703L208.046 287.354L208.135 291.494V291.508L208.82 324.812L206.923 329.327L209.058 336.729C209.058 336.729 208.076 325.54 202.81 331.965C199.828 335.617 196.339 339.353 193.476 342.856C197.648 344.463 201.888 345.916 206.194 347.216C207.124 347.499 208.061 347.768 208.998 348.036C209.199 348.093 209.4 348.15 209.601 348.206C223.876 352.223 238.634 354.48 253.513 354.922C254.286 354.943 255.045 354.958 255.781 354.972C256.042 354.979 256.295 354.986 256.548 354.986C257.381 354.993 258.206 355 259.039 355C260.72 355 262.394 354.976 264.06 354.929C276.391 354.599 288.65 353.021 300.631 350.223C300.549 345.517 300.326 340.019 300.006 334.145C299.857 331.265 296.518 328.144 296.317 325.129C296.176 322.865 299.173 320.734 299.017 318.434C298.005 304.274 296.741 309.71 295.804 299.682C295.707 298.698 295.618 297.757 295.536 296.858C294.934 290.419 294.517 286.392 294.517 286.392L298.519 262.395L304.803 224.718L304.32 223.961L303.777 223.706L270.627 208.095L268.827 203.707C268.303 202.443 267.393 201.357 266.215 200.589C265.036 199.821 263.643 199.406 262.215 199.397L240.378 199.313C239.245 199.308 238.127 199.56 237.116 200.049C236.106 200.537 235.233 201.248 234.569 202.122L228.656 209.913L189.541 233.776Z" fill="#3F3D56"/>
<path d="M213.082 281.424L208.136 291.494L204.759 298.373L198.95 327.31L196.042 330.246L193.55 319.85L167.472 325.359C166.617 320.837 167.243 325.512 166.715 320.551C166.864 320.41 167.02 320.268 167.176 320.127C167.593 319.759 167.942 319.412 167.935 319.079C167.637 301.968 168.53 272.847 175.982 255.205C177.15 252.324 178.689 249.593 180.564 247.073C180.713 246.882 180.854 246.691 180.995 246.5C184.432 241.922 186.603 237.414 189.683 234.208V234.201C189.702 234.186 189.719 234.17 189.735 234.151C189.746 234.146 189.756 234.139 189.764 234.13L210.917 223.458L211.825 247.717L212.472 265.155L213.082 281.424Z" fill="#3F3D56"/>
<path d="M289.355 284.284L295.533 296.862L297.689 301.242L303.497 330.176L306.395 333.106L308.893 322.712L310.066 322.483L331.229 318.312L337.397 336.952C338.787 334.748 339.335 332.155 338.947 329.611C338.56 327.067 337.261 324.728 335.271 322.99C334.849 322.628 334.498 322.275 334.508 321.941C334.859 301.815 333.566 265.065 321.881 249.939C318.17 245.139 315.943 240.358 312.704 237.018C312.694 237.009 312.694 236.999 312.684 236.999L304.8 224.717L304.319 223.963L303.777 223.706L289.355 284.284Z" fill="#3F3D56"/>
<path d="M251.927 193.4C267.972 193.4 280.979 181.024 280.979 165.758C280.979 150.492 267.972 138.116 251.927 138.116C235.883 138.116 222.876 150.492 222.876 165.758C222.876 181.024 235.883 193.4 251.927 193.4Z" fill="#FFB6B6"/>
<path d="M291.194 146.45C290.969 146.221 290.697 146.038 290.396 145.911C290.095 145.784 289.77 145.717 289.44 145.712L289.877 144.558C290.02 144.195 290.058 143.802 289.988 143.419C289.919 143.037 289.744 142.679 289.481 142.383C289.218 142.086 288.877 141.861 288.493 141.731C288.109 141.601 287.696 141.57 287.295 141.642L285.704 141.934L285.854 140.923C285.912 140.546 285.865 140.162 285.719 139.808C285.573 139.453 285.333 139.141 285.022 138.902C284.71 138.663 284.339 138.505 283.945 138.444C283.55 138.383 283.145 138.42 282.77 138.553C282.429 138.681 282.063 138.734 281.697 138.71C281.331 138.685 280.976 138.583 280.658 138.41C280.338 138.243 280.06 138.012 279.844 137.732C279.628 137.453 279.478 137.132 279.406 136.791L278.852 134.248L278.793 134.111C276.094 129.831 270.904 126.717 264.554 125.575C258.901 124.552 253.105 125.073 247.517 125.563C245.3 125.761 242.797 125.985 240.71 127.201C238.937 128.243 237.437 130.327 237.744 132.43C232.234 130.824 226.327 134.031 223.4 138.075C219.931 142.889 219.364 148.919 219.273 153.634C219.025 164.788 221.444 173.913 226.445 180.762C226.81 181.258 226.901 182.294 227.625 182.641L227.475 182.412C228.283 182.796 229.105 183.417 228.798 184.081C227.918 185.991 233.767 190.216 237.887 191.612C245.405 194.161 255.4 193.944 262.428 193.026L262.676 191.444C265.212 191.115 266.999 190.489 267.501 189.509C268.387 188.789 269.144 188.144 269.802 187.548L269.809 187.542C269.822 187.53 269.848 187.511 269.861 187.499C273.036 184.602 273.773 182.952 274.105 180.439C274.425 177.976 273.858 175.476 273.277 173.224C285.496 175.024 268.466 160.842 279.849 158.1C279.98 158.062 280.113 158.031 280.247 158.007C280.58 157.933 280.912 157.858 281.232 157.772C282.772 157.374 284.246 156.775 285.613 155.991C288.795 154.149 289.844 151.705 291.487 148.95C291.724 148.558 291.824 148.104 291.771 147.654C291.718 147.205 291.516 146.783 291.194 146.45Z" fill="#2F2E41"/>
<path d="M354.678 286.252C354.672 287.338 354.659 288.858 354.607 290.737C354.6 290.998 354.594 291.265 354.587 291.538C354.502 294.993 354.418 297.89 354.281 301.11C354.274 301.333 354.268 301.55 354.255 301.773C354.072 306.265 353.785 311.494 353.29 319.776C352.37 335.074 350.766 321.879 349.156 327.245C349.078 327.512 348.993 327.828 348.915 328.2C348.671 329.551 348.259 330.869 347.689 332.127C346.835 332.611 345.955 333.076 345.088 333.541C342.617 334.85 340.106 336.11 337.577 337.307C336.155 337.977 334.727 338.635 333.293 339.267C333.065 339.367 332.843 339.466 332.622 339.559C325.276 342.791 317.706 345.54 309.965 347.785C308.452 348.219 306.946 348.641 305.42 349.032C303.83 349.453 302.239 349.85 300.628 350.223C288.648 353.021 276.389 354.599 264.058 354.931C262.396 354.981 260.72 354.999 259.038 354.999C258.203 354.999 257.382 354.993 256.547 354.987C256.293 354.987 256.039 354.981 255.784 354.975C255.048 354.956 254.285 354.944 253.515 354.925C238.636 354.483 223.878 352.225 209.604 348.207L208.997 348.039C208.059 347.766 207.126 347.499 206.194 347.214C201.891 345.917 197.651 344.466 193.473 342.859C190.285 341.637 187.134 340.326 184.02 338.926C183.991 338.919 183.965 338.906 183.941 338.889C183.289 338.604 182.631 338.306 181.979 338.002C181.894 337.958 181.803 337.915 181.712 337.871C179.28 336.742 176.874 335.56 174.494 334.323C172.492 329.95 169.676 329.112 167.928 325.266C167.42 324.123 167.052 322.928 166.833 321.705C166.833 321.693 166.827 321.68 166.827 321.662C167.009 323.969 166.051 317.567 166.82 321.637C166.814 321.563 166.807 321.482 166.801 321.389C166.781 321.165 166.755 320.893 166.716 320.551C164.479 299.776 164.623 276.016 163.651 256.438C163.586 255.173 163.519 253.961 163.449 252.803C163.43 252.418 163.404 252.04 163.378 251.668C163.423 251.556 163.475 251.438 163.534 251.326C163.547 251.294 163.562 251.263 163.58 251.233C163.599 251.195 163.621 251.158 163.645 251.122C163.658 251.103 163.677 251.078 163.691 251.06C163.7 251.038 163.711 251.018 163.723 250.998C163.782 250.911 163.847 250.818 163.919 250.731C163.951 250.694 163.977 250.663 164.01 250.632C164.033 250.6 164.059 250.571 164.088 250.545C164.108 250.515 164.132 250.488 164.16 250.464C164.186 250.439 164.212 250.408 164.245 250.377C164.259 250.358 164.276 250.341 164.297 250.328C164.348 250.271 164.405 250.22 164.466 250.173C164.699 249.969 164.947 249.782 165.21 249.614C165.301 249.559 165.399 249.503 165.49 249.441C166.147 249.067 166.839 248.751 167.557 248.498C167.805 248.411 168.052 248.33 168.32 248.243C168.417 248.219 168.509 248.188 168.607 248.157C168.75 248.113 168.893 248.07 169.043 248.039C169.787 247.828 170.589 247.648 171.456 247.48C171.56 247.462 171.671 247.443 171.782 247.418C171.938 247.387 172.101 247.363 172.264 247.338C172.486 247.3 172.714 247.263 172.942 247.226C174.879 246.934 177.076 246.717 179.501 246.575C179.73 246.562 179.958 246.55 180.186 246.537C180.453 246.525 180.721 246.513 180.994 246.5C181.223 246.488 181.457 246.482 181.692 246.475C181.92 246.463 182.155 246.457 182.396 246.451C183.055 246.432 183.733 246.413 184.424 246.401C186.393 246.364 188.466 246.376 190.644 246.42C191.654 246.444 192.685 246.469 193.741 246.513C193.813 246.513 193.878 246.519 193.943 246.519C194.862 246.55 195.788 246.587 196.74 246.637C197.405 246.668 198.077 246.699 198.748 246.736C199.381 246.773 200.019 246.81 200.665 246.854C201.167 246.879 201.669 246.916 202.178 246.947C202.608 246.978 203.038 247.009 203.469 247.034L204.055 247.071C204.375 247.096 204.694 247.114 205.02 247.145C205.737 247.201 206.455 247.257 207.185 247.313C207.909 247.375 208.645 247.437 209.382 247.499C210.119 247.561 210.862 247.629 211.605 247.698C211.684 247.704 211.755 247.71 211.827 247.716C212.505 247.784 213.183 247.846 213.868 247.915C214.024 247.927 214.187 247.939 214.344 247.958C214.996 248.02 215.662 248.093 216.321 248.16C216.523 248.181 216.724 248.201 216.927 248.222C217.443 248.275 217.951 248.322 218.471 248.38C219.155 248.454 219.853 248.523 220.531 248.609C221.059 248.665 221.587 248.721 222.115 248.783C222.943 248.876 223.784 248.975 224.626 249.081C224.945 249.118 225.265 249.155 225.584 249.199C227.983 249.484 230.409 249.8 232.873 250.129C236.609 250.632 240.404 251.178 244.224 251.767C248.052 252.356 251.901 252.979 255.771 253.634C256.749 253.802 257.727 253.969 258.712 254.143C259.155 254.224 259.598 254.304 260.042 254.385C260.798 254.515 261.554 254.652 262.311 254.788C263.067 254.925 263.823 255.061 264.58 255.204C265.479 255.371 266.386 255.539 267.285 255.706C273.212 256.823 279.106 258.014 284.857 259.261C285.802 259.465 286.747 259.676 287.686 259.881C289.564 260.297 291.424 260.719 293.267 261.147C293.776 261.258 294.278 261.376 294.78 261.494C296.032 261.792 297.284 262.09 298.516 262.394L298.731 262.449C299.637 262.66 300.524 262.877 301.411 263.101C303.504 263.622 305.562 264.149 307.585 264.683C308.928 265.036 310.256 265.394 311.569 265.756C313.531 266.296 315.454 266.841 317.326 267.394C317.789 267.53 318.252 267.667 318.708 267.797C320.077 268.2 321.427 268.609 322.737 269.019C323.78 269.341 324.798 269.67 325.802 269.999C326.806 270.328 327.79 270.657 328.755 270.985C329.375 271.196 329.987 271.42 330.6 271.631C331.48 271.941 332.348 272.251 333.195 272.561C333.456 272.654 333.71 272.753 333.965 272.846C334.128 272.915 334.284 272.97 334.441 273.033C334.747 273.15 335.06 273.262 335.36 273.38C335.666 273.492 335.966 273.609 336.266 273.734C336.559 273.845 336.859 273.963 337.146 274.081C337.44 274.193 337.727 274.31 338.013 274.435C338.255 274.528 338.489 274.627 338.718 274.726C339.18 274.918 339.643 275.111 340.093 275.309C340.315 275.408 340.537 275.502 340.758 275.601L341.267 275.824C341.339 275.861 341.41 275.892 341.482 275.923C341.645 275.998 341.815 276.078 341.978 276.153C342.356 276.32 342.727 276.5 343.092 276.668C343.581 276.904 344.057 277.139 344.514 277.369C344.977 277.604 345.427 277.84 345.857 278.07C345.929 278.107 345.994 278.144 346.066 278.181C346.163 278.231 346.261 278.287 346.359 278.337C346.691 278.516 347.011 278.703 347.33 278.882C347.956 279.248 348.55 279.608 349.104 279.968C349.228 280.049 349.345 280.129 349.469 280.204C349.88 280.483 350.271 280.756 350.636 281.035C350.636 281.041 350.636 281.041 350.643 281.041C350.766 281.128 350.884 281.221 351.001 281.308C351.099 281.395 351.203 281.469 351.301 281.556C351.64 281.835 351.953 282.102 352.24 282.375C352.336 282.459 352.427 282.548 352.514 282.642C352.552 282.672 352.587 282.705 352.618 282.741C352.748 282.865 352.866 282.989 352.977 283.113C352.994 283.13 353.009 283.149 353.022 283.169C353.179 283.343 353.322 283.516 353.459 283.69C353.524 283.777 353.596 283.864 353.655 283.951C353.733 284.056 353.811 284.168 353.876 284.273C353.935 284.36 353.987 284.453 354.039 284.54C354.178 284.764 354.296 284.998 354.391 285.241C354.465 285.406 354.524 285.576 354.567 285.75C354.617 285.914 354.654 286.082 354.678 286.252Z" fill="#2F2E41"/>
<path opacity="0.2" d="M354.678 286.252C354.672 287.338 354.659 288.858 354.607 290.737C354.6 290.998 354.587 291.265 354.581 291.538C354.515 294.174 354.418 297.431 354.281 301.11C354.274 301.333 354.268 301.55 354.255 301.773C354.072 306.265 353.785 311.494 353.29 319.776C352.37 335.074 350.766 321.879 349.156 327.245C344.683 324.627 339.78 321.885 334.538 319.069C333.593 318.56 332.639 318.049 331.676 317.536C321.192 311.972 309.482 306.141 297.257 300.365C296.775 300.136 296.286 299.906 295.804 299.683C267.8 286.513 237.235 273.703 212.472 265.154C207.693 263.504 203.129 262.015 198.839 260.706C189.803 257.958 181.992 256.035 175.98 255.204C169.721 254.335 165.399 254.645 163.651 256.438C163.586 255.173 163.519 253.961 163.449 252.803C163.423 252.418 163.397 252.04 163.371 251.668C163.411 251.566 163.463 251.468 163.514 251.37C163.521 251.355 163.527 251.341 163.534 251.327C163.546 251.294 163.562 251.263 163.58 251.233C163.599 251.195 163.621 251.158 163.645 251.122C163.666 251.078 163.692 251.036 163.723 250.998C163.782 250.911 163.847 250.818 163.919 250.731C163.971 250.666 164.028 250.604 164.088 250.545C164.108 250.515 164.132 250.488 164.16 250.464C164.186 250.439 164.212 250.408 164.245 250.377C164.259 250.358 164.276 250.341 164.297 250.328C164.348 250.271 164.405 250.219 164.466 250.173C164.699 249.969 164.947 249.782 165.21 249.614C165.301 249.559 165.399 249.503 165.49 249.441C166.147 249.067 166.839 248.751 167.557 248.498C167.805 248.411 168.052 248.33 168.32 248.243C168.417 248.219 168.509 248.188 168.606 248.157C168.75 248.113 168.893 248.07 169.043 248.039C169.787 247.828 170.589 247.648 171.456 247.48C171.716 247.431 171.99 247.381 172.264 247.338C172.486 247.3 172.714 247.263 172.942 247.226C174.879 246.934 177.076 246.717 179.501 246.575C179.729 246.562 179.958 246.55 180.186 246.537C180.453 246.525 180.72 246.513 180.994 246.5C181.223 246.488 181.457 246.482 181.692 246.475C181.92 246.463 182.155 246.457 182.396 246.451C183.055 246.432 183.733 246.413 184.424 246.401C186.393 246.37 188.466 246.382 190.644 246.426C191.654 246.444 192.685 246.475 193.741 246.519C193.806 246.519 193.878 246.525 193.943 246.525C194.862 246.55 195.795 246.593 196.74 246.637C197.405 246.668 198.076 246.699 198.748 246.736C199.38 246.773 200.019 246.81 200.665 246.854C201.167 246.879 201.669 246.916 202.177 246.947C202.608 246.978 203.038 247.009 203.468 247.034C203.984 247.071 204.499 247.108 205.02 247.145C205.737 247.201 206.455 247.257 207.185 247.313C207.909 247.375 208.645 247.437 209.382 247.499C210.119 247.561 210.862 247.629 211.605 247.697C211.684 247.704 211.755 247.71 211.827 247.716C212.505 247.784 213.183 247.846 213.868 247.915C217.662 248.281 221.568 248.709 225.584 249.199C227.983 249.49 230.413 249.803 232.873 250.135C236.609 250.638 240.404 251.184 244.224 251.767C248.052 252.356 251.901 252.979 255.771 253.634C256.749 253.802 257.727 253.969 258.712 254.143C259.911 254.354 261.111 254.569 262.311 254.788C263.067 254.925 263.823 255.061 264.58 255.204C265.479 255.371 266.386 255.539 267.285 255.706C273.212 256.823 279.106 258.014 284.857 259.261C285.802 259.465 286.747 259.676 287.686 259.881C289.564 260.297 291.424 260.719 293.267 261.147C293.776 261.265 294.278 261.382 294.78 261.5C296.038 261.798 297.283 262.096 298.516 262.394V262.4C298.587 262.412 298.659 262.431 298.731 262.449C299.631 262.667 300.524 262.884 301.411 263.107C303.503 263.628 305.562 264.153 307.585 264.683C308.928 265.042 310.258 265.396 311.569 265.756C313.531 266.302 315.455 266.848 317.326 267.394C317.789 267.53 318.252 267.667 318.708 267.797C320.077 268.206 321.42 268.614 322.737 269.019C323.78 269.341 324.798 269.67 325.802 269.999C326.806 270.328 327.79 270.657 328.755 270.985C329.381 271.196 329.994 271.413 330.6 271.624C331.487 271.935 332.348 272.245 333.195 272.561C333.456 272.654 333.71 272.753 333.965 272.846C334.44 273.02 334.903 273.2 335.36 273.38C335.666 273.492 335.966 273.609 336.266 273.734C336.559 273.845 336.859 273.963 337.146 274.081C337.44 274.193 337.727 274.31 338.013 274.435C338.255 274.528 338.489 274.627 338.718 274.726C339.18 274.918 339.643 275.111 340.093 275.309C340.315 275.408 340.537 275.502 340.758 275.601L341.267 275.824C341.339 275.861 341.41 275.892 341.482 275.923C342.036 276.172 342.571 276.42 343.092 276.668C343.581 276.904 344.057 277.139 344.514 277.369C345.055 277.642 345.57 277.909 346.065 278.181C346.163 278.231 346.261 278.287 346.359 278.337C346.691 278.516 347.011 278.703 347.33 278.882C347.956 279.248 348.55 279.608 349.104 279.968C349.651 280.328 350.16 280.681 350.636 281.035C350.636 281.041 350.636 281.041 350.642 281.041C350.871 281.215 351.092 281.389 351.301 281.556C351.64 281.835 351.953 282.102 352.24 282.375C352.336 282.459 352.427 282.548 352.514 282.642C352.552 282.672 352.587 282.705 352.618 282.741C352.755 282.884 352.892 283.026 353.022 283.169C353.179 283.343 353.322 283.516 353.459 283.69C353.524 283.777 353.596 283.864 353.655 283.951C353.733 284.056 353.811 284.168 353.876 284.273C353.935 284.36 353.987 284.453 354.039 284.54C354.178 284.764 354.296 284.998 354.391 285.241C354.463 285.406 354.522 285.576 354.568 285.75C354.617 285.915 354.654 286.082 354.678 286.252Z" fill="black"/>
</g>
<defs>
<clipPath id="clip0_3_311">
<rect width="513" height="355" fill="white"/>
</clipPath>
</defs>
</svg>
